<svg version="1.1" id="svg1" xml:space="preserve" xmlns:xlink="http://www.w3.org/1999/xlink" xmlns="http://www.w3.org/2000/svg" xmlns:svg="http://www.w3.org/2000/svg" viewBox="39.73 23.15 68.22 103.05"><defs id="defs1"><linearGradient id="linearGradient10"><stop style="stop-color:#ffffff;stop-opacity:1;" offset="0" id="stop10"/><stop style="stop-color:#2a5e5c;stop-opacity:0;" offset="1" id="stop11"/></linearGradient><linearGradient xlink:href="#linearGradient10" id="linearGradient11" x1="106.56802" y1="127.11691" x2="106.74876" y2="140.14847" gradientUnits="userSpaceOnUse" spreadMethod="pad" gradientTransform="matrix(1.6264568,0,0,1.6264568,-98.895438,-132.84552)"/></defs><g id="layer1"><g id="g9"><path style="fill:#ffffff;fill-opacity:1;stroke:#205781;stroke-width:0;stroke-linecap:round;stroke-linejoin:round;stroke-miterlimit:1;paint-order:stroke fill markers" d="m 46.69755,98.616962 c 0.839536,3.692728 3.418245,8.506468 3.540585,8.562548 l -3.382993,4.37057 c -0.58555,0.94384 -0.381388,1.49798 0,1.96466 1.219615,1.49518 2.455999,2.68899 3.640185,3.77676 1.055017,1.07538 2.111689,1.91216 2.34461,1.96395 0.644085,0.44633 1.155167,0.43597 1.665019,0.24247 0.864902,-0.4314 1.802909,-1.3173 2.662685,-2.00036 0.584614,-0.48823 1.247896,-0.95151 1.679743,-1.15972 0.135598,-0.0527 0.268964,-0.0585 0.400079,-0.0171 1.684635,0.98756 3.34004,1.73585 4.98691,2.38354 1.069916,0.40209 2.119338,0.8034 3.138574,1.07884 0.248067,-0.005 0.376183,0.1119 0.397896,0.45463 0.114991,1.48542 0.399474,2.87624 0.880515,4.68548 0.236243,0.86996 0.796606,1.04623 1.388327,1.15535 1.840092,0.17169 5.673976,0.11304 8.094973,0.0529 0.771689,-0.069 1.164121,-1.2035 1.150198,-1.51262 0.363562,-0.94391 0.564348,-3.21375 0.685844,-4.7135 0.0392,-0.13907 0.179578,-0.25959 0.558087,-0.33619 3.08381,-0.70937 5.322937,-1.98127 7.631693,-3.18716 0.384185,-0.23501 0.82837,-0.007 1.180059,0.17483 1.201561,0.83767 2.306836,1.83014 3.63988,2.65218 0.639409,0.44092 1.268458,0.41006 1.889943,0.0356 0.509358,0.005 4.535017,-4.02187 4.820753,-4.33036 0.530815,-0.57308 2.232995,-1.79248 1.578895,-2.72487 -0.83146,-1.80782 -2.284826,-3.32093 -3.53092,-4.94446 -0.22489,-0.23881 -0.08783,-0.31231 0.03383,-0.56636 1.587031,-2.69655 2.72145,-5.32348 3.3761,-7.876576 0.0695,-0.314638 0.14069,-0.436964 0.51604,-0.430686 2.05137,-0.166207 4.50901,-0.515651 5.28674,-0.95782 0.53972,-0.258428 0.85065,-0.664944 0.94808,-1.180059 0.035,-2.883692 0.06,-5.742759 -0.005,-8.376773 -0.29397,-0.776634 -0.85147,-1.278119 -1.6739,-1.445237 -1.48377,-0.330464 -2.99752,-0.455994 -4.56884,-0.558802 -0.16479,-0.03692 -0.32462,-0.131418 -0.44052,-0.350615 -0.76741,-3.02817 -2.136874,-5.616383 -3.551924,-8.171287 1.961718,-2.689379 3.136784,-3.939213 3.497684,-5.058264 0.35726,-0.754123 -0.28402,-1.696883 -0.74422,-2.195213 -2.04859,-2.226863 -5.48949,-5.445816 -5.806145,-5.387573 -0.52328,-0.376638 -1.05744,-0.328398 -1.598628,-0.0065 -0.707948,0.303888 -2.834572,2.226571 -4.307947,3.417381 -0.05774,0.02212 -0.12052,0.03643 -0.209211,0.0098 -2.128365,-1.2229 -4.223746,-2.446191 -8.477369,-3.644369 -0.385278,-1.793569 -0.655884,-4.421447 -0.727244,-5.016239 -0.05501,-0.435208 -0.03093,-1.401124 -0.857253,-1.395736 -0.791979,0.03975 -1.901104,0.05991 -2.018215,0.150545 0.06601,1.524196 0.544371,9.915542 0.892612,14.850473 2.074659,0.631911 4.031888,1.311656 5.625426,2.139587 3.452382,1.841621 6.084932,4.503057 7.959473,7.922504 1.496682,3.25994 2.321279,6.51988 2.145849,9.77982 -0.24579,3.430961 -1.231829,6.460953 -2.693461,9.233349 -1.366451,2.22341 -3.301561,4.54868 -8.030452,7.37432 -2.451037,1.19966 -5.184249,1.8863 -8.193162,2.07167 -2.027915,0.0224 -4.092539,-0.41366 -6.170923,-1.02205 -1.079805,-0.39246 -2.94096,-1.25268 -3.814155,-1.67258 -1.617112,-0.92689 -3.234224,-2.22389 -4.851336,-4.03773 -1.316916,-1.53923 -2.275596,-3.07846 -2.933329,-4.61769 -0.863606,-2.100781 -1.35945,-2.628692 -1.729737,-6.196121 -0.03957,-2.763008 -0.201856,-5.406033 1.973483,-10.334734 2.699165,-4.399533 5.322121,-6.70336 7.920485,-8.330874 1.76451,-0.835186 3.635033,-1.592773 6.144347,-2.321556 0.156303,-4.759566 -0.162646,-11.578356 -1.653667,-14.029361 -0.08116,-0.06652 -0.15305,-0.05237 -0.216335,0.03806 -0.548344,0.917257 -0.947395,3.585866 -1.187704,5.463659 -2.93081,0.879604 -5.843539,1.792502 -8.302395,3.54148 -0.109282,0.03139 -0.222184,0.0065 -0.353519,-0.05839 -1.536266,-1.178531 -3.525844,-2.968056 -4.543222,-3.44721 -0.39899,-0.141502 -0.822828,-0.192605 -1.359923,0.16811 -0.647502,0.441567 -2.895376,2.701659 -4.550439,4.288202 -0.714229,0.64772 -1.611128,1.476888 -1.912965,2.124771 -0.150692,0.422781 -0.200268,0.867796 0.09414,1.38849 0.428547,0.774405 0.993189,1.508782 1.571725,2.239078 0.529917,0.74438 1.122943,1.470301 1.73142,2.444158 l 0.09583,0.381599 c -1.518735,2.484136 -2.757269,5.145898 -3.559013,8.060216 -0.05428,0.165833 -0.140851,0.315679 -0.677133,0.350062 -1.548208,0.192345 -3.161606,0.08669 -4.631128,0.638775 -0.593825,0.213797 -1.110375,0.546489 -1.37673,1.264098 -0.05932,2.89132 -0.17415,5.940861 0.01122,8.540655 0.121448,0.606929 0.532086,0.930333 1.109999,1.089742 1.755917,0.522207 3.630864,0.735907 5.493476,0.934627 l 0.243741,0.147845 z" id="path1"/><path style="fill:url(#linearGradient11);fill-opacity:1;stroke:#205781;stroke-width:0;stroke-linecap:round;stroke-linejoin:round;stroke-miterlimit:1;paint-order:stroke fill markers" d="m 72.834345,72.791609 2.278877,0.0405 c 0.148658,-4.978096 -0.852965,-15.113821 -0.819181,-15.25771 -0.337636,-4.953049 0.317468,-7.010581 0.79968,-9.572414 0.720699,-2.088224 1.250257,-3.985339 3.560249,-7.662856 1.712919,-2.212713 3.446153,-4.229145 5.234767,-5.710229 1.966598,-1.494421 3.883735,-2.69216 5.748907,-3.57801 0.968556,-0.53364 2.218976,-0.98436 3.209509,-1.316388 0.386164,-0.08949 0.445725,0.152252 0.117929,0.31101 -1.915806,1.183682 -3.235104,2.126153 -5.173271,3.641165 -2.072318,1.62296 -5.461073,4.900401 -6.513423,7.023301 -0.41338,0.518514 -0.942727,1.384993 -1.498178,2.329737 -0.275506,0.37197 -0.164581,0.466972 0.141339,0.418568 1.662223,0.213115 3.286256,0.407216 4.827795,0.321063 2.269152,0.02797 4.18515,-0.312605 5.871688,-0.8926 2.40187,-0.668831 4.410203,-1.717619 6.076785,-3.096383 1.660352,-1.333744 3.339243,-2.976514 5.075213,-5.570354 2.0197,-2.712703 3.24192,-5.425416 4.61065,-8.138123 l 0.75644,-1.449014 c 0.18233,-0.412482 0.34901,-0.46293 -0.39168,-0.526147 -2.98661,-0.70921 -6.04448,-1.038474 -9.183234,-0.936314 -3.78174,0.08441 -7.645762,0.817994 -11.748434,3.434262 -2.352133,1.664725 -4.665329,3.462959 -6.52393,6.81977 -1.273483,2.161984 -2.152372,4.718579 -3.173038,7.133396 l -0.308295,0.570577 c -0.11434,0.208382 -0.246473,0.130767 -0.293641,-0.149634 -0.411818,-2.459804 -0.765004,-5.589871 -1.057863,-6.69191 -0.489304,-2.105351 -1.500439,-4.168104 -3.7402,-6.130564 -2.769433,-2.453232 -6.432393,-3.204857 -10.159471,-3.600919 0.415787,1.986603 0.479131,3.356428 1.265348,5.991283 0.309126,1.181377 0.776999,2.214584 1.354879,3.145128 0.399489,0.758547 1.031416,1.526788 1.733102,2.297924 1.4339,1.299864 2.928386,2.351807 4.558844,2.847584 0.995115,0.381241 1.959637,0.64811 2.903063,0.662309 0.217457,0.0098 0.170062,-0.102141 0.06213,-0.34123 -0.310963,-1.198357 -0.699312,-2.383817 -1.312844,-3.531754 -0.606961,-1.37673 -1.264619,-2.753461 -2.321458,-4.130191 -0.349769,-0.488848 -0.765394,-0.971109 -1.255689,-1.558276 -0.16167,-0.291547 -0.05335,-0.362123 0.200038,-0.228621 0.852758,0.639811 0.94097,0.71511 1.442276,1.195175 l 1.356563,1.450686 c 1.530902,1.743757 3.000796,4.253168 3.562022,6.999652 l 0.497565,3.627584 c -1.235782,2.577186 -2.273819,6.04419 -3.079322,10.557591 -0.103943,0.114352 -0.240136,0.156405 -0.413656,0.06652 L 68.686754,49.096129 C 67.773873,47.360454 67.202461,45.778974 66.204597,44.37108 64.89055,42.433986 63.319685,40.487557 59.260425,38.450631 56.188398,37.247899 53.065057,36.151016 49.19634,36.591461 c -2.26058,0.0014 -4.560738,0.340076 -6.902888,1.094654 -0.437423,0.139387 -0.341079,0.150122 -0.24486,0.401767 0.595631,1.41723 1.30778,2.863589 2.207318,4.35679 0.857586,1.458395 1.733255,2.907747 2.790446,4.266343 2.659793,3.746527 5.875967,5.930891 9.467333,7.061848 2.260534,0.627064 4.776086,1.128923 9.333836,0.306961 0.561843,-0.06213 0.563664,-0.01854 0.27814,-0.470697 -0.740054,-1.246028 -1.484516,-2.461171 -2.274454,-3.35795 -1.785428,-2.223301 -3.827213,-4.135283 -6.387764,-5.705269 -0.922665,-0.576126 -1.410852,-0.80621 -2.928453,-1.685416 -0.460693,-0.271472 -0.16154,-0.401556 0.160157,-0.282255 1.682351,0.423192 2.717068,0.886861 3.93659,1.33898 1.19925,0.63614 2.404043,1.262586 3.504863,2.070984 1.584262,1.194438 3.058061,2.637414 4.439492,4.288202 l 1.723751,2.599095 c 1.691711,2.590701 2.316904,4.24323 3.135988,6.923712 0.962976,3.700873 1.047292,8.54664 1.398509,12.992397 z" id="path2"/><g id="g4" transform="matrix(1.6264568,0,0,1.6264568,-98.895438,-132.84552)"><circle style="fill:#ffffff;fill-opacity:1;stroke:#205781;stroke-width:0;stroke-linecap:round;stroke-linejoin:round;stroke-miterlimit:1;paint-order:stroke fill markers" id="path4" cx="97.686722" cy="140.04482" r="0.75"/></g><g id="g7" style="display:inline" transform="matrix(1.6264568,0,0,1.6264568,-98.895438,-132.84552)"><circle style="display:inline;fill:#ffffff;fill-opacity:1;stroke:#205781;stroke-width:0;stroke-linecap:round;stroke-linejoin:round;stroke-miterlimit:1;paint-order:stroke fill markers" id="path7" cx="111.5714" cy="144.17441" r="1.604019"/><circle style="display:inline;fill:#ffffff;fill-opacity:1;stroke:#205781;stroke-width:0;stroke-linecap:round;stroke-linejoin:round;stroke-miterlimit:1;paint-order:stroke fill markers" id="path7-1" cx="109.00951" cy="147.33656" r="1.604019"/><circle style="display:inline;fill:#ffffff;fill-opacity:1;stroke:#205781;stroke-width:0;stroke-linecap:round;stroke-linejoin:round;stroke-miterlimit:1;paint-order:stroke fill markers" id="path7-1-1" cx="106.25499" cy="143.69153" r="1.0665841"/><circle style="display:inline;fill:#ffffff;fill-opacity:1;stroke:#205781;stroke-width:0;stroke-linecap:round;stroke-linejoin:round;stroke-miterlimit:1;paint-order:stroke fill markers" id="path7-1-1-7" cx="106.15578" cy="148.22453" r="0.78546435"/><circle style="display:inline;fill:#ffffff;fill-opacity:1;stroke:#205781;stroke-width:0;stroke-linecap:round;stroke-linejoin:round;stroke-miterlimit:1;paint-order:stroke fill markers" id="path7-1-2" cx="103.32632" cy="147.26855" r="1.604019"/><circle style="display:inline;fill:#ffffff;fill-opacity:1;stroke:#205781;stroke-width:0;stroke-linecap:round;stroke-linejoin:round;stroke-miterlimit:1;paint-order:stroke fill markers" id="path7-1-2-8" cx="100.74232" cy="144.1431" r="1.604019"/></g><circle style="fill:#295e5c;fill-opacity:1;stroke:#205781;stroke-width:0;stroke-linecap:round;stroke-linejoin:round;stroke-miterlimit:1;paint-order:stroke fill markers" id="path4-5-3" cx="-82.591415" cy="101.64651" r="1.2198426" transform="scale(-1,1)"/><circle style="fill:#295e5c;fill-opacity:1;stroke:#205781;stroke-width:0;stroke-linecap:round;stroke-linejoin:round;stroke-miterlimit:1;paint-order:stroke fill markers" id="path4-5-3-6" cx="-64.943344" cy="101.65186" r="1.2198426" transform="scale(-1,1)"/><circle style="fill:#295e5c;fill-opacity:1;stroke:#205781;stroke-width:0;stroke-linecap:round;stroke-linejoin:round;stroke-miterlimit:1;paint-order:stroke fill markers" id="path4-5-3-6-8" cx="-69.178513" cy="106.71307" r="1.2198426" transform="scale(-1,1)"/><circle style="fill:#295e5c;fill-opacity:1;stroke:#205781;stroke-width:0;stroke-linecap:round;stroke-linejoin:round;stroke-miterlimit:1;paint-order:stroke fill markers" id="path4-5-3-6-8-4" cx="-78.387375" cy="106.78148" r="1.2198426" transform="scale(-1,1)"/><circle style="fill:#295e5c;fill-opacity:1;stroke:#205781;stroke-width:0;stroke-linecap:round;stroke-linejoin:round;stroke-miterlimit:1;paint-order:stroke fill markers" id="path4-5-3-6-8-4-0" cx="-73.901901" cy="100.80482" r="0.81095076" transform="scale(-1,1)"/><circle style="fill:#295e5c;fill-opacity:1;stroke:#205781;stroke-width:0;stroke-linecap:round;stroke-linejoin:round;stroke-miterlimit:1;paint-order:stroke fill markers" id="path4-5-3-6-8-4-0-6" cx="-73.780167" cy="108.24997" r="0.56371379" transform="scale(-1,1)"/><circle style="display:inline;fill:#ffffff;fill-opacity:1;stroke:#205781;stroke-width:0;stroke-linecap:round;stroke-linejoin:round;stroke-miterlimit:1;paint-order:stroke fill markers" id="path7-6" cx="87.917023" cy="94.410049" r="2.6088676"/><circle style="fill:#295e5c;fill-opacity:1;stroke:#205781;stroke-width:0;stroke-linecap:round;stroke-linejoin:round;stroke-miterlimit:1;paint-order:stroke fill markers" id="path4-5-3-0" cx="-87.937805" cy="94.408638" r="1.2198426" transform="scale(-1,1)"/><circle style="display:inline;fill:#ffffff;fill-opacity:1;stroke:#205781;stroke-width:0;stroke-linecap:round;stroke-linejoin:round;stroke-miterlimit:1;paint-order:stroke fill markers" id="path7-6-4" cx="60.020779" cy="94.604324" r="2.6088676"/><circle style="fill:#295e5c;fill-opacity:1;stroke:#205781;stroke-width:0;stroke-linecap:round;stroke-linejoin:round;stroke-miterlimit:1;paint-order:stroke fill markers" id="path4-5-3-0-9" cx="-60.041561" cy="94.602905" r="1.2198426" transform="scale(-1,1)"/><path style="fill:#ffffff;fill-opacity:1;stroke:#205781;stroke-width:0;stroke-linecap:round;stroke-linejoin:round;stroke-miterlimit:1;paint-order:stroke fill markers" d="m 69.16531,75.49082 c 0.541049,-0.124162 1.058328,-0.246714 1.631666,-0.343738 0.05783,0.0098 0.0838,0.04295 0.07932,0.07416 0.119263,3.152734 0.06261,6.096844 0.08578,9.13226 -2.871028,2.941078 -5.794614,5.882155 -8.759153,8.823233 -1.571011,0.335419 -1.091744,0.149582 -1.324986,-1.037662 2.71932,-2.839306 5.496837,-5.601016 8.30957,-8.315772 z" id="path8"/><path style="fill:#ffffff;fill-opacity:1;stroke:#205781;stroke-width:0;stroke-linecap:round;stroke-linejoin:round;stroke-miterlimit:1;paint-order:stroke fill markers" d="m 78.653524,75.485404 c -0.541049,-0.124162 -1.058328,-0.246714 -1.631666,-0.343738 -0.05783,0.0098 -0.0838,0.04295 -0.07932,0.07416 -0.119263,3.152734 -0.06261,6.096844 -0.08578,9.13226 2.871028,2.941078 5.794614,5.882155 8.759153,8.823233 1.589839,0.369748 1.355429,-0.730415 1.324986,-1.037662 -2.71932,-2.839306 -5.496837,-5.601016 -8.30957,-8.315772 z" id="path8-8"/><path style="fill:#ffffff;fill-opacity:1;stroke:#205781;stroke-width:0;stroke-linecap:round;stroke-linejoin:round;stroke-miterlimit:1;paint-order:stroke fill markers" d="m 73.007428,74.914288 1.863453,-0.04857 -0.04341,13.785204 c 2.628604,2.59286 5.404993,5.222667 7.874487,7.77575 0.143006,0.16447 0.238908,0.356327 0.263517,0.589632 l 0.110588,2.071193 c 0.134475,0.79005 -1.544885,0.904657 -1.618507,0.203604 0.02302,-0.08005 0.03127,-0.939531 -0.01138,-1.42627 -0.0511,-0.209227 -0.178258,-0.391731 -0.330729,-0.565341 l -6.120556,-6.091616 c -0.12089,-0.08348 -0.243327,-0.01787 -0.256315,0.121955 l -0.0052,3.574976 0.379304,0.413411 c 1.424426,1.326577 2.724479,2.571424 3.607017,3.541903 l 0.02273,0.07855 0.138494,5.287531 c -0.09831,1.16648 -1.193651,1.11497 -1.498616,0.1664 L 77.21694,99.58049 74.829488,97.02664 c -0.107551,-0.05903 -0.22089,-0.03675 -0.243911,0.09508 l 0.01138,2.144573 c -0.388491,-0.07776 -0.818603,-0.07364 -1.34979,-0.0011 l -0.04857,-2.036051 c -0.0052,-0.134876 -0.10164,-0.185836 -0.226344,-0.09405 -0.975739,0.767824 -1.97678,1.518131 -2.856672,2.35231 l -0.07545,4.766638 c -0.355971,0.90202 -1.158498,1.35846 -1.596802,-0.0662 l 0.187068,-5.247223 c 0.162676,-0.494154 2.609667,-2.49359 4.310761,-4.060468 l 0.08477,-3.513756 c 0.01044,-0.12376 -0.139605,-0.239426 -0.290356,-0.137967 l -6.558841,6.336739 -0.05116,1.710108 c -0.527607,0.708489 -1.421113,0.327665 -1.543486,-0.2514 l 0.06139,-2.256759 0.09258,-0.181911 c 2.385782,-2.733078 5.501826,-5.245443 8.206219,-8.030517 z" id="path9"/></g></g></svg>