<svg width="210" height="210" viewBox="0 0 210 210" fill="none" xmlns="http://www.w3.org/2000/svg">
<path d="M31.1253 159.298C36.8373 173.237 46.1508 176.138 52.6989 173.237C65.3627 167.626 98.2589 161.357 132.044 176.093C176.792 195.61 186.312 166.164 172.031 136.378C157.75 106.592 152.91 76.4703 169.373 59.875C185.836 43.2796 164.292 17.3185 126.033 44.3422C101.308 61.8059 83.163 57.9172 73.4191 52.9803C64.2358 48.3275 54.0228 43.4631 44.4543 47.2612C32.8439 51.87 28.2691 61.862 45.9337 84.1842C70.966 115.817 18.321 128.055 31.1253 159.298Z" fill="#F5E6F3"/>
<path d="M54.3827 91.3983H143.279V159.765C143.279 159.904 143.224 160.038 143.125 160.136C143.027 160.234 142.893 160.29 142.754 160.29H54.9077C54.7684 160.29 54.6349 160.234 54.5364 160.136C54.438 160.038 54.3827 159.904 54.3827 159.765V91.3983Z" fill="#EFD9EE"/>
<path d="M120.978 64.6071H79.6428L54.3827 91.3981H143.279L120.978 64.6071Z" fill="#97008B"/>
<path d="M62.8026 53.8906L79.6427 64.6071L54.3826 91.3982L35.246 76.8544L62.8026 53.8906Z" fill="#DFB0DB"/>
<path d="M137.818 53.8906L120.978 64.6071L143.279 91.3982L165.374 76.8544L137.818 53.8906Z" fill="#DFB0DB"/>
<path d="M90.5025 54.4385C90.9777 54.2132 91.3474 53.813 91.5344 53.3214C91.7214 52.8298 91.7112 52.285 91.5058 51.8008L83.9302 33.9374C83.8229 33.6844 83.6655 33.4557 83.4676 33.265C83.2696 33.0744 83.0351 32.9257 82.7783 32.828C82.5214 32.7303 82.2474 32.6855 81.9728 32.6964C81.6982 32.7073 81.4286 32.7736 81.1802 32.8914L79.7207 33.5835C79.4724 33.7012 79.2504 33.8679 79.0682 34.0737C78.886 34.2794 78.7472 34.5199 78.6603 34.7806C78.5734 35.0413 78.5401 35.3169 78.5624 35.5908C78.5847 35.8648 78.6621 36.1313 78.7901 36.3746L87.8252 53.5458C88.0701 54.0113 88.4854 54.3641 88.9844 54.5304C89.4833 54.6968 90.0272 54.6639 90.5025 54.4385Z" fill="#DFB0DB"/>
<path d="M100 52.7068C100.344 52.6823 100.665 52.5258 100.897 52.2701C101.128 52.0144 101.252 51.6792 101.241 51.3345L100.867 38.6173C100.862 38.4372 100.82 38.26 100.745 38.0964C100.669 37.9328 100.561 37.7861 100.428 37.6652C100.294 37.5444 100.137 37.4518 99.967 37.393C99.7966 37.3342 99.6161 37.3105 99.4364 37.3233L98.3798 37.3986C98.2001 37.4114 98.0248 37.4604 97.8645 37.5426C97.7042 37.6249 97.5622 37.7387 97.447 37.8772C97.3318 38.0157 97.2459 38.1761 97.1942 38.3487C97.1426 38.5212 97.1264 38.7025 97.1465 38.8815L98.5774 51.5235C98.6161 51.8663 98.7857 52.1807 99.0509 52.4013C99.3161 52.6218 99.6563 52.7312 100 52.7068Z" fill="#DFB0DB"/>
<path d="M107.333 57.4079C108.279 57.9548 109.607 57.4529 110.343 56.2699L123.423 35.2643C124.204 34.0095 124.019 32.4801 123.015 31.8999L121.617 31.0914C120.613 30.5112 119.195 31.1137 118.498 32.4169L106.817 54.2308C106.159 55.4594 106.387 56.8608 107.333 57.4079Z" fill="#DFB0DB"/>
</svg>
