<svg width="200" height="200" viewBox="0 0 200 200" fill="none" xmlns="http://www.w3.org/2000/svg">
<path d="M99.8223 45.2034C99.8223 45.2034 103.418 68.3261 142.178 68.9643C176.6 69.531 165.66 110.473 153.441 123.346C137.613 140.023 106.593 135.661 104.965 155.072C103.337 174.483 59.6065 166.947 60.3513 137.68C61.2779 101.273 41.336 112.344 31.2405 102.605C23.9949 95.6162 26.4854 63.2629 49.4515 59.5589C68.7769 56.4421 67.775 48.2543 69.3115 42.1929C71.5271 33.4511 93.9305 25.5323 99.8223 45.2034Z" fill="#F5E6F3"/>
<path d="M136.285 127.512C136.287 128.1 136.173 128.682 135.95 129.225C135.727 129.769 135.398 130.263 134.984 130.679C134.569 131.095 134.076 131.425 133.534 131.651C132.991 131.876 132.41 131.992 131.822 131.992L60.2331 132.138C59.6457 132.139 59.0639 132.025 58.5207 131.802C57.9776 131.578 57.4839 131.25 57.0678 130.835C56.6517 130.42 56.3214 129.928 56.0958 129.386C55.8702 128.843 55.7538 128.262 55.7531 127.675L55.6525 77.3385L95.2782 52.4612C95.4555 52.3493 95.6607 52.2895 95.8703 52.2885C96.0799 52.2875 96.2856 52.3454 96.4639 52.4556L135.256 76.6L136.185 77.1761V77.9815L136.285 127.512Z" fill="#710068"/>
<path d="M130.445 56.7936H60.9669C60.8012 56.7936 60.6669 56.9279 60.6669 57.0936V131.439C60.6669 131.604 60.8012 131.739 60.9669 131.739H130.445C130.61 131.739 130.745 131.604 130.745 131.439V57.0936C130.745 56.9279 130.61 56.7936 130.445 56.7936Z" fill="#97008B"/>
<path d="M131.751 131.921L96.2176 104.829C96.1889 104.807 96.1659 104.779 96.1504 104.746C96.1348 104.714 96.1272 104.678 96.1281 104.642C96.1291 104.606 96.1385 104.571 96.1557 104.539C96.1729 104.508 96.1974 104.48 96.2271 104.46L135.827 77.3944C135.861 77.3711 135.901 77.3576 135.942 77.3552C135.984 77.3529 136.025 77.3618 136.061 77.3811C136.098 77.4003 136.128 77.4292 136.15 77.4645C136.171 77.4999 136.183 77.5404 136.183 77.5817L136.283 127.488C136.285 128.661 135.827 129.787 135.008 130.625C134.188 131.463 133.072 131.946 131.9 131.97C131.846 131.971 131.794 131.954 131.751 131.921Z" fill="#DFB0DB"/>
<path d="M60.2932 132.064L95.7178 104.83C95.7463 104.808 95.7693 104.779 95.7847 104.747C95.8001 104.714 95.8076 104.679 95.8065 104.643C95.8054 104.607 95.7958 104.572 95.7785 104.54C95.7612 104.508 95.7366 104.482 95.7068 104.461L55.9994 77.554C55.9652 77.5308 55.9253 77.5174 55.8841 77.5152C55.8428 77.513 55.8017 77.5221 55.7652 77.5415C55.7287 77.5609 55.6982 77.5898 55.6769 77.6253C55.6557 77.6607 55.6445 77.7013 55.6445 77.7426L55.7445 127.649C55.7469 128.821 56.2092 129.946 57.032 130.781C57.8548 131.616 58.9724 132.094 60.1445 132.114C60.1983 132.114 60.2507 132.097 60.2932 132.064Z" fill="#DFB0DB"/>
<path d="M131.817 131.971L60.2276 132.115C59.1446 132.114 58.0985 131.721 57.2824 131.009C56.4664 130.297 55.9354 129.314 55.7876 128.241C55.7633 128.058 55.7845 127.872 55.8492 127.699C55.914 127.526 56.0204 127.372 56.159 127.25L95.204 92.7069C95.4079 92.5264 95.6707 92.4266 95.9429 92.426C96.2152 92.4255 96.4784 92.5243 96.683 92.7039L135.865 127.091C136.005 127.212 136.112 127.366 136.177 127.539C136.243 127.711 136.264 127.897 136.241 128.08C136.097 129.154 135.57 130.139 134.757 130.854C133.944 131.569 132.9 131.966 131.817 131.971Z" fill="#EFD9EE"/>
<path d="M78.4509 75.2503C79.8409 75.2503 80.9677 73.7479 80.9677 71.8946C80.9677 70.0413 79.8409 68.5389 78.4509 68.5389C77.0609 68.5389 75.9341 70.0413 75.9341 71.8946C75.9341 73.7479 77.0609 75.2503 78.4509 75.2503Z" fill="#FEFEFE"/>
<path d="M113.686 75.2503C115.076 75.2503 116.203 73.7479 116.203 71.8946C116.203 70.0413 115.076 68.5389 113.686 68.5389C112.296 68.5389 111.17 70.0413 111.17 71.8946C111.17 73.7479 112.296 75.2503 113.686 75.2503Z" fill="#FEFEFE"/>
<path d="M105.577 86.377C105.492 86.377 105.409 86.3555 105.334 86.3144C105.26 86.2732 105.198 86.2139 105.153 86.1418C105.126 86.1001 102.389 81.8718 96.0272 81.3418C93.3793 81.1213 90.8664 81.8586 88.5613 83.5341C87.5332 84.2723 86.62 85.1586 85.8513 86.1642C85.7748 86.2718 85.6589 86.3448 85.5288 86.3673C85.3986 86.3897 85.2649 86.3598 85.1568 86.284C85.0486 86.2082 84.9749 86.0927 84.9516 85.9628C84.9283 85.8328 84.9573 85.6989 85.0324 85.5903C85.0743 85.5303 86.0802 84.1083 87.9435 82.7467C90.4204 80.9367 93.2446 80.1067 96.1101 80.345C102.992 80.9185 105.881 85.4206 106 85.6119C106.047 85.6876 106.074 85.7745 106.076 85.8637C106.078 85.9529 106.057 86.0411 106.014 86.1192C105.97 86.1973 105.907 86.2623 105.83 86.3077C105.753 86.353 105.666 86.377 105.577 86.377L105.577 86.377Z" fill="#FEFEFE"/>
</svg>
