<svg width="322" height="322" viewBox="0 0 322 322" fill="none" xmlns="http://www.w3.org/2000/svg">
<path d="M218.401 91.8694C217.547 86.3171 212.849 80.5821 208.456 77.8059C207.998 77.5016 207.541 77.226 207.083 76.9521C197.138 83.8405 178.955 94.982 157.599 98.3686C155.952 98.6425 153.939 98.2452 152.687 99.3746C148.753 102.883 147.96 115.147 138.228 115.421C136.884 118.84 135.665 122.133 134.353 124.94C135.944 122.712 147.569 124.825 150.522 125.49C153.418 126.13 165.912 129.534 165.38 132.202C167.576 127.471 166.722 122.683 165.288 117.678C182.708 114.324 206.84 101.999 218.401 91.8694Z" fill="#97008B"/>
<path d="M66.0476 143.337C62.9493 146.315 59.0373 148.308 54.8064 149.062C50.5757 149.817 46.216 149.301 42.2788 147.578C38.3417 145.855 35.0039 143.003 32.6875 139.383C30.3711 135.763 29.1802 131.538 29.2652 127.241C29.3505 122.944 30.7078 118.769 33.1658 115.244C35.6237 111.718 39.0719 109.001 43.0742 107.436C47.0765 105.87 51.4532 105.527 55.6508 106.448C59.8484 107.37 63.6783 109.516 66.6564 112.615C68.6354 114.671 70.1898 117.097 71.2304 119.755C72.271 122.412 72.7776 125.249 72.7212 128.102C72.6646 130.955 72.0461 133.77 70.9009 136.384C69.7558 138.998 68.1066 141.361 66.0476 143.337Z" fill="#DFB0DB"/>
<path d="M299.551 228.727C301.747 221.131 309.07 223.449 313.097 218.872C313.829 225.86 309.985 232.876 303.029 233.211L299.551 228.727Z" fill="#DFB0DB"/>
<path d="M133.986 243.766C131.21 245.384 126.025 242.028 120.351 235.62C120.45 237.831 121.077 239.987 122.18 241.906C126.025 249.106 125.842 266.862 130.113 265.615C131.303 265.249 132.706 259.208 133.957 252.284C134.605 248.939 135.461 245.637 136.521 242.398C135.99 242.669 134.518 243.412 133.986 243.766Z" fill="#79006F"/>
<path d="M151.742 90.7721C152.303 92.4008 153.127 93.926 154.184 95.2864C156.867 94.8907 159.85 94.0769 160.406 92.8466C160.503 92.6394 160.585 92.4252 160.651 92.2059C159.949 94.4326 155.891 92.938 151.742 90.7721Z" fill="#79006F"/>
<path d="M155.342 74.389C149.942 68.7149 132.34 73.1683 120.411 81.8028C108.422 90.4662 111.87 98.5816 127.398 94.8603C126.483 95.1342 116.536 98.1235 110.039 105.593C100.49 116.576 108.788 120.786 119.49 118.59C132.272 115.966 143.255 105.472 146.977 98.21C148.686 93.9317 149.845 89.4536 150.427 84.8834C145.974 81.2533 148.689 77.9581 151.129 80.4604C152.441 81.8028 153.905 81.162 152.289 76.7759C153.918 75.7651 155.874 75.4415 155.342 74.389Z" fill="#79006F"/>
<path d="M196.07 251.76C195.506 244.516 195.588 237.237 196.313 230.007C190.526 231.641 184.385 231.547 178.65 229.733C178.772 234.799 177.186 237.36 178.498 240.503C179.286 242.265 180.404 243.859 181.792 245.2C187.528 250.998 192.44 268.081 196.192 265.641C197.23 264.967 196.832 258.777 196.07 251.76Z" fill="#97008B"/>
<path d="M138.685 123.965C138.41 125.38 137.981 126.762 137.403 128.083C132.431 125.611 133.591 123.995 138.685 123.965Z" fill="#79006F"/>
<path d="M165.41 132.165C165.287 132.745 164.463 133.112 163.091 133.286C163.61 132.341 164.068 131.486 164.463 130.632C165.165 131.225 165.5 131.744 165.41 132.165Z" fill="#79006F"/>
<path d="M179.076 178.969L175.872 188.151C175.751 184.582 175.629 181.074 175.567 177.627L179.076 178.969Z" fill="#79006F"/>
<path d="M69.5142 243.797C61.3219 229.773 50.451 217.829 45.3152 219.808C38.3643 222.486 47.795 243.965 53.2032 253.346C62.2942 269.088 73.2772 279.765 77.8588 277.302C84.5181 273.591 73.6393 250.857 69.5142 243.797Z" fill="#710068"/>
<path d="M125.842 210.758C116.812 195.138 105.859 184.582 101.343 187.21C96.7986 189.832 100.459 204.599 109.459 220.218C118.459 235.837 129.442 246.363 133.956 243.766C138.502 241.144 134.842 226.377 125.842 210.758Z" fill="#710068"/>
<path d="M136.519 242.393C135.463 245.633 134.607 248.934 133.956 252.279C132.719 259.206 131.305 265.255 130.111 265.611C125.848 266.892 126.009 249.11 122.178 241.902C121.073 239.984 120.446 237.828 120.349 235.616" stroke="#710068" stroke-linecap="round" stroke-linejoin="round"/>
<path d="M242.105 127.595C241.496 126.609 240.679 125.77 239.71 125.136C238.741 124.502 237.645 124.089 236.498 123.926C235.351 123.763 234.183 123.854 233.077 124.192C231.97 124.531 230.949 125.109 230.091 125.885C229.751 124.726 229.147 123.661 228.33 122.773C227.511 121.885 226.499 121.197 225.371 120.763C224.245 120.329 223.032 120.161 221.829 120.272C220.626 120.382 219.466 120.768 218.436 121.4C217.546 121.948 216.772 122.667 216.16 123.515C215.546 124.363 215.107 125.324 214.867 126.342C213.6 125.387 212.075 124.836 210.491 124.763C208.906 124.69 207.336 125.098 205.988 125.932C204.639 126.766 203.573 127.989 202.931 129.44C202.289 130.89 202.101 132.5 202.39 134.06C201.36 133.79 200.286 133.73 199.234 133.882C198.18 134.034 197.169 134.396 196.257 134.946C195.229 135.577 194.361 136.436 193.717 137.457C193.073 138.477 192.672 139.632 192.546 140.831C192.419 142.031 192.57 143.244 192.986 144.376C193.401 145.509 194.072 146.53 194.945 147.363C193.875 147.784 192.911 148.435 192.119 149.268C191.328 150.102 190.727 151.098 190.362 152.188C189.995 153.278 189.872 154.434 190 155.577C190.127 156.719 190.503 157.82 191.101 158.802C191.935 160.182 193.183 161.266 194.665 161.9C196.148 162.535 197.794 162.688 199.368 162.341L241.956 136.229C243.028 135.583 244.33 131.188 242.105 127.595Z" stroke="#79006F" stroke-linecap="round" stroke-linejoin="round"/>
<path d="M209.799 139.705C210.805 140.653 211.453 141.919 211.636 143.29C211.819 144.661 211.524 146.052 210.8 147.231C210.076 148.409 208.969 149.302 207.665 149.76C206.359 150.217 204.937 150.212 203.636 149.743" stroke="#79006F" stroke-linecap="round" stroke-linejoin="round"/>
<path d="M228.774 134.337C228.604 135.571 228.059 136.723 227.21 137.635C226.361 138.546 225.251 139.174 224.034 139.431C222.814 139.688 221.546 139.562 220.4 139.071C219.257 138.579 218.292 137.746 217.639 136.686C217.361 136.228 217.147 135.735 216.998 135.221" stroke="#79006F" stroke-linecap="round" stroke-linejoin="round"/>
<path d="M230.086 125.885C229.265 126.659 228.585 127.568 228.072 128.572" stroke="#79006F" stroke-linecap="round" stroke-linejoin="round"/>
<path d="M197.723 146.848C196.776 146.896 195.841 147.069 194.941 147.364" stroke="#79006F" stroke-linecap="round" stroke-linejoin="round"/>
<path d="M214.862 126.343C214.662 127.338 214.63 128.358 214.765 129.363" stroke="#79006F" stroke-linecap="round" stroke-linejoin="round"/>
<path d="M205.408 135.476C204.493 134.828 203.469 134.349 202.385 134.062" stroke="#79006F" stroke-linecap="round" stroke-linejoin="round"/>
<path d="M252.966 145.227C250.703 141.499 246.032 140.835 245.218 141.445L202.598 167.59C201.379 168.323 199.705 172.752 202.02 176.497C202.622 177.476 203.431 178.312 204.389 178.945C205.348 179.579 206.435 179.994 207.572 180.163C208.709 180.329 209.869 180.246 210.971 179.917C212.072 179.589 213.089 179.024 213.948 178.259C214.436 179.94 215.474 181.409 216.894 182.432C218.313 183.456 220.033 183.975 221.783 183.909C223.532 183.842 225.209 183.193 226.547 182.064C227.885 180.936 228.806 179.392 229.166 177.679C230.425 178.644 231.947 179.206 233.532 179.291C235.116 179.378 236.689 178.982 238.046 178.157C239.401 177.332 240.476 176.118 241.13 174.671C241.782 173.224 241.982 171.615 241.705 170.053C243.395 170.48 245.179 170.335 246.778 169.639C248.377 168.942 249.7 167.735 250.538 166.206C251.376 164.676 251.682 162.913 251.408 161.189C251.134 159.467 250.296 157.885 249.026 156.691C250.107 156.28 251.086 155.637 251.891 154.806C252.696 153.975 253.309 152.977 253.686 151.883C254.061 150.789 254.192 149.626 254.067 148.475C253.944 147.325 253.567 146.216 252.966 145.227Z" stroke="#79006F" stroke-linecap="round" stroke-linejoin="round"/>
<path d="M227.492 168.566C227.178 167.504 226.579 166.549 225.759 165.806C224.939 165.063 223.931 164.56 222.843 164.351C221.756 164.143 220.633 164.239 219.596 164.627C218.56 165.016 217.65 165.681 216.967 166.552C216.299 167.413 215.868 168.433 215.716 169.511" stroke="#79006F" stroke-linecap="round" stroke-linejoin="round"/>
<path d="M240.886 154.112C239.712 153.706 238.44 153.673 237.245 154.016C236.051 154.359 234.991 155.062 234.211 156.029C233.431 156.997 232.966 158.181 232.884 159.421C232.801 160.661 233.102 161.897 233.746 162.959C234.022 163.421 234.361 163.842 234.754 164.21" stroke="#79006F" stroke-linecap="round" stroke-linejoin="round"/>
<path d="M249.03 156.699C247.955 157.096 246.82 157.303 245.674 157.309" stroke="#79006F" stroke-linecap="round" stroke-linejoin="round"/>
<path d="M215.636 176.058C215.18 176.872 214.611 177.617 213.948 178.274" stroke="#79006F" stroke-linecap="round" stroke-linejoin="round"/>
<path d="M241.709 170.061C240.727 169.779 239.798 169.338 238.959 168.757" stroke="#79006F" stroke-linecap="round" stroke-linejoin="round"/>
<path d="M229.258 174.42C229.403 175.507 229.373 176.609 229.171 177.688" stroke="#79006F" stroke-linecap="round" stroke-linejoin="round"/>
<path d="M202.598 167.59L198.053 170.335" stroke="#79006F" stroke-linecap="round" stroke-linejoin="round"/>
<path d="M199.365 162.342L194.88 165.058" stroke="#79006F" stroke-linecap="round" stroke-linejoin="round"/>
<path d="M175.722 183.911L127.276 213.32" stroke="#79006F" stroke-linecap="round" stroke-linejoin="round"/>
<path d="M174.745 177.29L124.194 208.012" stroke="#79006F" stroke-linecap="round" stroke-linejoin="round"/>
<path d="M217.76 92.4189C228.61 91.4153 239.52 93.5679 249.175 98.6175C258.829 103.667 266.822 111.399 272.187 120.882C288.392 148.732 279.903 184.701 253.24 201.209C236.562 211.535 231.934 206.076 199.548 215.306" stroke="#79006F" stroke-linecap="round" stroke-linejoin="round"/>
<path d="M134.305 243.529C149.12 235.803 162.36 229.049 175.996 223.479" stroke="#79006F" stroke-linecap="round" stroke-linejoin="round"/>
<path d="M136 161.213C125.72 169.45 114.462 177.474 101.313 187.176" stroke="#79006F" stroke-linecap="round" stroke-linejoin="round"/>
<path d="M180.175 113.316C173.782 122.929 166.608 132 158.728 140.437" stroke="#79006F" stroke-linecap="round" stroke-linejoin="round"/>
<path d="M207.053 76.9825C212.208 79.8805 217.456 85.8301 218.401 91.8694C206.838 101.999 182.708 114.324 165.288 117.678C166.722 122.683 167.576 127.473 165.38 132.202C165.912 129.538 153.601 126.177 150.522 125.49C147.516 124.818 135.931 122.733 134.353 124.94C135.665 122.133 136.886 118.838 138.228 115.421C147.96 115.147 148.737 102.865 152.687 99.3746C153.932 98.2756 155.891 98.6441 157.599 98.3686C178.942 94.8971 197.138 83.8469 207.083 76.9521L207.053 76.9825Z" stroke="#79006F" stroke-linecap="round" stroke-linejoin="round"/>
<path d="M136.099 130.371C144.833 130.232 153.435 132.516 160.949 136.971" stroke="#79006F" stroke-linecap="round" stroke-linejoin="round"/>
<path d="M160.51 92.5311C159.515 94.2708 155.67 92.8226 151.742 90.7689C152.302 92.3978 153.127 93.9232 154.184 95.2832" stroke="#79006F" stroke-linecap="round" stroke-linejoin="round"/>
<path d="M156.468 98.4823C154.342 97.9601 154.911 96.9252 154.184 95.2864C159.919 94.439 160.912 93.3833 160.676 90.5094C160.332 86.3347 157.881 77.2388 155.342 74.389" stroke="#79006F" stroke-linecap="round" stroke-linejoin="round"/>
<path d="M165.288 117.678C163.518 118.015 161.811 118.258 160.223 118.412" stroke="#79006F" stroke-linecap="round" stroke-linejoin="round"/>
<path d="M152.292 76.7695C153.908 81.162 152.452 81.8028 151.132 80.454C148.691 77.9533 145.977 81.2549 150.43 84.8769C149.85 89.4487 148.691 93.9283 146.983 98.2084C143.262 105.47 132.279 115.964 119.497 118.588C108.788 120.785 100.49 116.575 110.045 105.592C116.543 98.1171 126.489 95.1278 127.404 94.8587C111.876 98.58 108.432 90.4693 120.418 81.8012C132.349 73.1715 149.948 68.7133 155.348 74.3874C155.864 75.4318 153.86 75.8003 152.292 76.7695Z" stroke="#79006F" stroke-linecap="round" stroke-linejoin="round"/>
<path d="M138.228 115.421C139.84 111.062 141.916 106.889 144.421 102.974C145.412 101.492 146.259 99.9194 146.952 98.2773" stroke="#79006F" stroke-linecap="round" stroke-linejoin="round"/>
<path d="M158.775 140.389C160.891 137.274 162.796 134.021 164.479 130.653" stroke="#79006F" stroke-linecap="round" stroke-linejoin="round"/>
<path d="M225.052 75.4879C229.658 74.389 233.45 76.4651 233.136 78.2337C233.065 78.5882 232.92 78.9236 232.71 79.2179C232.498 79.5123 232.229 79.7587 231.917 79.9413" stroke="#79006F" stroke-linecap="round" stroke-linejoin="round"/>
<path d="M224.625 72.6813C229.475 71.5215 234.296 73.9629 232.221 76.526" stroke="#79006F" stroke-linecap="round" stroke-linejoin="round"/>
<path d="M217.882 89.6732C220.753 86.3966 224.436 83.9345 228.561 82.5349" stroke="#79006F" stroke-linecap="round" stroke-linejoin="round"/>
<path d="M224.868 78.7815C229.354 77.8668 232.308 79.6354 232.13 81.3751C231.91 83.5105 227.644 86.7448 224.045 84.6703" stroke="#79006F" stroke-linecap="round" stroke-linejoin="round"/>
<path d="M221.086 71.0633C221.147 71.0025 223.008 68.4105 222.185 67.5855C221.483 66.8838 211.354 75.2124 208.517 77.8668" stroke="#79006F" stroke-linecap="round" stroke-linejoin="round"/>
<path d="M226.912 72.3753C234.967 68.5018 237.129 63.8289 235.608 64.686C230.529 67.2283 225.313 69.4893 219.987 71.459C215.864 73.0278 211.99 75.1861 208.487 77.8668" stroke="#79006F" stroke-linecap="round" stroke-linejoin="round"/>
<path d="M196.313 230.007C195.594 237.237 195.512 244.516 196.07 251.76C196.847 258.775 197.228 264.968 196.192 265.641C192.437 268.078 187.517 251.009 181.792 245.2C180.401 243.861 179.283 242.265 178.498 240.503C177.183 237.355 178.777 234.789 178.649 229.708" stroke="#79006F" stroke-linecap="round" stroke-linejoin="round"/>
<path d="M125.842 210.758C134.853 226.371 138.505 241.149 133.956 243.758C129.445 246.357 118.459 235.827 109.459 220.21C100.459 204.592 96.8019 189.835 101.343 187.206C105.885 184.577 116.823 195.131 125.842 210.758Z" stroke="#79006F" stroke-linecap="round" stroke-linejoin="round"/>
<path d="M79.5376 268.702C77.2565 254.504 63.5438 230.882 52.4102 222.351C46.6592 217.896 42.5406 218.685 43.0116 226.156C43.9055 240.333 59.6927 267.685 71.4766 275.711C78.019 280.164 80.832 276.762 79.5376 268.702Z" stroke="#79006F" stroke-linecap="round" stroke-linejoin="round"/>
<path d="M78.1616 277.141L87.219 271.901C88.0916 271.217 88.6848 270.239 88.8871 269.149C89.0894 268.06 88.8869 266.934 88.3179 265.982C91.9223 271.411 98.9949 265.806 96.1579 261.101C98.7899 265.586 107.066 262.69 103.663 255.885C104.434 256.885 105.533 257.578 106.766 257.846C108 258.115 109.288 257.939 110.404 257.349C114.088 254.998 112.722 250.424 110.436 242.98C106.16 230.195 99.377 218.39 90.4838 208.258C88.3464 205.712 85.8995 203.442 83.1997 201.504C78.9305 198.856 74.1279 200.841 75.7795 208.044C74.421 205.781 72.8271 204.301 70.1342 205.023C69.4543 205.212 68.8275 205.557 68.3028 206.028C67.778 206.5 67.3697 207.087 67.1099 207.743C66.8499 208.399 66.7454 209.107 66.8047 209.81C66.8638 210.513 67.085 211.192 67.4509 211.796C67.4509 211.796 64.2903 207.801 60.7083 210.638C59.8188 211.332 59.2195 212.331 59.0276 213.441C58.8356 214.553 59.0647 215.695 59.6703 216.647C59.3819 216.138 58.9955 215.692 58.5335 215.333C58.0715 214.975 57.5432 214.712 56.9787 214.558C56.4143 214.404 55.8253 214.366 55.2454 214.441C54.6654 214.516 54.1065 214.707 53.6005 215L45.0749 219.905" stroke="#710068" stroke-linecap="round" stroke-linejoin="round"/>
<path d="M299.551 228.727C295.788 230.805 292.18 233.15 288.752 235.744C278.682 243.521 268.861 253.285 270.17 254.994C271.478 256.704 283.383 249.69 293.476 241.906C296.86 239.247 300.041 236.341 302.995 233.211" stroke="#DFB0DB" stroke-linecap="round" stroke-linejoin="round"/>
<path d="M299.551 228.727C301.747 221.131 309.07 223.449 313.097 218.872C313.829 225.86 309.985 232.876 303.029 233.211L299.551 228.727Z" stroke="#DFB0DB" stroke-linecap="round" stroke-linejoin="round"/>
<path d="M290.018 234.787L294.731 240.899" stroke="#DFB0DB" stroke-linecap="round" stroke-linejoin="round"/>
<path d="M306.721 82.5958L302.724 91.5491H310.045L306.018 100.504" stroke="#DFB0DB" stroke-linecap="round" stroke-linejoin="round"/>
<path d="M164.463 303.745L148.234 304.232" stroke="#79006F" stroke-linecap="round" stroke-linejoin="round"/>
<path d="M156.593 312.104L156.104 295.873" stroke="#79006F" stroke-linecap="round" stroke-linejoin="round"/>
<path d="M138.685 123.965C138.41 125.38 137.981 126.762 137.403 128.083C132.431 125.611 133.591 123.995 138.685 123.965Z" stroke="#79006F" stroke-linecap="round" stroke-linejoin="round"/>
<path d="M165.38 132.202C165.232 132.754 164.449 133.115 163.124 133.294" stroke="#79006F" stroke-linecap="round" stroke-linejoin="round"/>
<path d="M138.685 123.965C138.185 127.43 136.426 130.591 133.743 132.841C121.754 142.36 121.568 155.691 130.326 165.668" stroke="#79006F" stroke-linecap="round" stroke-linejoin="round"/>
<path d="M44.5415 220.238L31.0242 227.902" stroke="#79006F" stroke-linecap="round" stroke-linejoin="round"/>
<path d="M77.5416 277.476L65.4069 284.555" stroke="#79006F" stroke-linecap="round" stroke-linejoin="round"/>
<path d="M59.5485 288.246L50.5488 293.494" stroke="#79006F" stroke-linecap="round" stroke-linejoin="round"/>
<path d="M24.7398 231.838L15.5573 237.056" stroke="#79006F" stroke-linecap="round" stroke-linejoin="round"/>
<path d="M53.2336 253.346L23.6712 270.826" stroke="#79006F" stroke-linecap="round" stroke-linejoin="round"/>
<path d="M17.7841 274.519L8.81476 279.735" stroke="#79006F" stroke-linecap="round" stroke-linejoin="round"/>
<path d="M66.0476 143.337C62.9493 146.315 59.0373 148.308 54.8064 149.062C50.5757 149.817 46.216 149.301 42.2788 147.578C38.3417 145.855 35.0039 143.003 32.6875 139.383C30.3711 135.763 29.1802 131.538 29.2652 127.241C29.3505 122.944 30.7078 118.769 33.1658 115.244C35.6237 111.718 39.0719 109.001 43.0742 107.436C47.0765 105.87 51.4532 105.527 55.6508 106.448C59.8484 107.37 63.6783 109.516 66.6564 112.615C68.6354 114.671 70.1898 117.097 71.2304 119.755C72.271 122.412 72.7776 125.249 72.7212 128.102C72.6646 130.955 72.0461 133.77 70.9009 136.384C69.7558 138.998 68.1066 141.361 66.0476 143.337Z" stroke="#79006F" stroke-linecap="round" stroke-linejoin="round"/>
<path d="M72.6973 128.961C79.4399 132.165 83.4304 135.209 82.8569 137.131C81.8301 140.602 66.6564 139.266 48.9324 134.14C31.2084 129.014 17.6575 122.041 18.6684 118.564C19.2451 116.58 24.3729 116.153 31.9645 117.1" stroke="#79006F" stroke-linecap="round" stroke-linejoin="round"/>
<path d="M131.524 151.633C132.408 157.186 135.529 162.277 139.731 163.594C152.852 167.698 175.576 177.657 175.576 177.657C175.86 193.369 177.282 210.657 175.76 228.727C183.036 231.79 191.203 231.974 198.611 229.245C199.892 212.192 200.714 195.839 200.41 180.738C200.341 176.979 199.471 173.281 197.856 169.886C196.24 166.493 193.918 163.483 191.045 161.061C179.189 151.259 165.969 143.233 151.803 137.235" stroke="#79006F" stroke-linecap="round" stroke-linejoin="round"/>
<path d="M175.568 177.657L179.076 178.969L175.874 188.151" stroke="#79006F" stroke-linecap="round" stroke-linejoin="round"/>
<path d="M176.393 216.676C183.81 219.221 191.796 219.612 199.426 217.805" stroke="#79006F" stroke-linecap="round" stroke-linejoin="round"/>
<path d="M169.681 9.89606V14.9919" stroke="#DFB0DB" stroke-linecap="round" stroke-linejoin="round"/>
<path d="M179.595 19.8105H174.5" stroke="#DFB0DB" stroke-linecap="round" stroke-linejoin="round"/>
<path d="M169.681 29.7266V24.6308" stroke="#DFB0DB" stroke-linecap="round" stroke-linejoin="round"/>
<path d="M159.767 19.8105H164.864" stroke="#DFB0DB" stroke-linecap="round" stroke-linejoin="round"/>
<path d="M174.5 19.8105C173.867 19.8121 173.239 19.6888 172.654 19.4472C172.068 19.2057 171.536 18.8507 171.089 18.4029C170.641 17.9552 170.286 17.4233 170.045 16.8378C169.803 16.2525 169.679 15.6251 169.681 14.9919C169.683 15.625 169.559 16.2522 169.317 16.8375C169.077 17.4228 168.721 17.9545 168.274 18.4024C167.826 18.8502 167.294 19.205 166.709 19.4467C166.125 19.6883 165.497 19.812 164.864 19.8105C165.497 19.8091 166.125 19.9328 166.709 20.1745C167.296 20.4162 167.827 20.7712 168.274 21.2193C168.721 21.6672 169.077 22.1992 169.319 22.7847C169.559 23.3701 169.683 23.9976 169.681 24.6308C169.679 23.9974 169.803 23.3699 170.045 22.7842C170.285 22.1987 170.641 21.6666 171.087 21.2187C171.536 20.7708 172.068 20.4158 172.653 20.174C173.239 19.9323 173.867 19.8088 174.5 19.8105Z" stroke="#DFB0DB" stroke-linecap="round" stroke-linejoin="round"/>
</svg>
