<svg width="322" height="322" viewBox="0 0 322 322" fill="none" xmlns="http://www.w3.org/2000/svg">
<path d="M303.348 86.9851L290.396 154.748C288.585 153.69 286.702 152.761 284.761 151.966C285.545 146.214 285.261 143.02 284.043 141.207C284.22 140.906 284.343 140.576 284.406 140.233C284.56 139.425 284.387 138.589 283.924 137.909C283.462 137.23 282.748 136.761 281.941 136.608C281.133 136.454 280.297 136.627 279.618 137.09C278.938 137.552 278.47 138.266 278.316 139.073C278.3 139.167 278.284 139.265 278.272 139.357C275.873 140.434 274.301 144.108 272.716 148.516L272.684 148.838C262.919 147.674 253.039 149.672 244.493 154.537C243.834 142.896 247.9 127.613 244.313 122.498C244.496 122.198 244.621 121.866 244.683 121.52C244.768 121.076 244.755 120.619 244.645 120.181C244.535 119.743 244.33 119.334 244.045 118.983C243.761 118.633 243.403 118.348 242.997 118.15C242.591 117.952 242.146 117.846 241.695 117.838C241.243 117.83 240.795 117.92 240.382 118.104C239.969 118.287 239.601 118.558 239.304 118.898C239.007 119.239 238.788 119.64 238.662 120.074C238.537 120.508 238.507 120.964 238.576 121.41C230.446 126.287 229.119 156.687 218.533 154.979C207.877 153.253 223.671 109.96 215.763 100.181C216.006 99.8314 216.17 99.4338 216.246 99.015C216.322 98.6152 216.319 98.2042 216.236 97.8056C216.154 97.407 215.994 97.0285 215.765 96.6917C215.537 96.355 215.244 96.0666 214.904 95.843C214.564 95.6193 214.183 95.4649 213.783 95.3885C213.383 95.312 212.972 95.3151 212.574 95.3975C212.175 95.4799 211.797 95.64 211.46 95.8686C211.123 96.0973 210.835 96.3901 210.611 96.7302C210.387 97.0703 210.233 97.4512 210.156 97.851C210.101 98.134 210.087 98.4235 210.113 98.7107C198.384 104.642 197.737 167.986 180.834 165.151C164.234 162.369 182.613 112.246 174.482 102.303C174.542 102.146 174.587 101.984 174.619 101.82C174.695 101.419 174.692 101.008 174.61 100.609C174.527 100.21 174.367 99.8311 174.138 99.4941C173.909 99.157 173.616 98.8684 173.275 98.6446C172.935 98.4208 172.553 98.2663 172.153 98.1899C171.753 98.1134 171.342 98.1166 170.943 98.1991C170.544 98.2817 170.165 98.442 169.828 98.671C169.491 98.9 169.202 99.1931 168.978 99.5336C168.754 99.8741 168.6 100.255 168.523 100.656C168.497 100.803 168.48 100.952 168.474 101.102C156.975 106.154 150.606 147.542 143.895 146.65L160.517 59.6811L303.348 86.9851ZM198.394 74.5671C198.518 73.9191 198.447 73.2488 198.19 72.6411C197.933 72.0335 197.501 71.5156 196.95 71.1532C196.399 70.7907 195.752 70.5998 195.092 70.6047C194.433 70.6097 193.789 70.8101 193.243 71.1808C192.697 71.5514 192.274 72.0756 192.026 72.6871C191.778 73.2985 191.717 73.9698 191.85 74.6159C191.984 75.2621 192.306 75.8541 192.776 76.3171C193.246 76.7801 193.843 77.0934 194.491 77.2172C195.36 77.3802 196.258 77.193 196.989 76.6965C197.72 76.2001 198.225 75.4346 198.394 74.5671ZM184.435 71.8945C184.559 71.2465 184.488 70.5762 184.231 69.9685C183.974 69.3609 183.543 68.843 182.991 68.4806C182.44 68.1181 181.793 67.9272 181.134 67.9321C180.474 67.9371 179.83 68.1375 179.285 68.5082C178.739 68.8788 178.315 69.403 178.067 70.0145C177.819 70.6259 177.758 71.2972 177.892 71.9433C178.025 72.5895 178.348 73.1815 178.818 73.6445C179.288 74.1075 179.884 74.4208 180.532 74.5446C181.401 74.7106 182.301 74.5247 183.033 74.0278C183.764 73.5308 184.269 72.7635 184.435 71.8945ZM170.48 69.23C170.603 68.5823 170.531 67.9125 170.274 67.3054C170.017 66.6983 169.585 66.1811 169.034 65.8193C168.483 65.4574 167.837 65.2671 167.177 65.2724C166.518 65.2776 165.875 65.4783 165.33 65.849C164.784 66.2197 164.361 66.7437 164.114 67.3549C163.866 67.966 163.805 68.6368 163.939 69.2825C164.073 69.9282 164.395 70.5197 164.865 70.9824C165.334 71.445 165.931 71.758 166.579 71.8817C167.447 72.0459 168.346 71.859 169.077 71.3619C169.808 70.8649 170.313 70.0982 170.48 69.23Z" fill="#EBF0F0"/>
<path d="M299.782 161.985C308.407 170.611 313.253 182.309 313.253 194.507C313.253 206.705 308.407 218.404 299.782 227.029C291.157 235.655 279.458 240.5 267.26 240.5C255.062 240.5 243.363 235.655 234.738 227.029L267.26 194.507L299.782 161.985Z" fill="#EBF0F0"/>
<path d="M299.782 161.985L267.26 194.504L234.738 161.982C241.16 155.567 249.336 151.193 258.236 149.411C267.137 147.628 276.366 148.516 284.764 151.963C286.705 152.758 288.588 153.687 290.399 154.745C293.826 156.743 296.98 159.176 299.782 161.985Z" fill="#97008B"/>
<path d="M284.051 141.207C285.269 143.02 285.553 146.214 284.769 151.966C280.905 150.378 276.843 149.324 272.694 148.836L272.726 148.514C274.31 144.106 275.883 140.432 278.282 139.355C278.214 140.06 278.39 140.766 278.779 141.357C279.168 141.948 279.748 142.388 280.422 142.604C281.096 142.82 281.824 142.799 282.484 142.545C283.144 142.29 283.698 141.818 284.052 141.205L284.051 141.207Z" fill="#EBF0F0"/>
<path d="M281.95 136.609C282.757 136.762 283.47 137.23 283.933 137.91C284.395 138.59 284.568 139.425 284.415 140.233C284.352 140.576 284.228 140.906 284.051 141.207C283.285 140.144 282.141 139.416 280.855 139.172C280.001 138.931 279.09 138.996 278.279 139.357C278.29 139.265 278.306 139.167 278.324 139.073C278.399 138.673 278.553 138.292 278.776 137.951C279 137.61 279.288 137.317 279.625 137.088C279.962 136.859 280.341 136.699 280.739 136.617C281.138 136.534 281.55 136.532 281.95 136.609Z" fill="#97008B"/>
<path d="M284.051 141.207C283.696 141.819 283.143 142.292 282.482 142.546C281.822 142.801 281.094 142.822 280.42 142.606C279.747 142.39 279.167 141.95 278.778 141.359C278.388 140.768 278.213 140.061 278.28 139.357C279.091 138.996 280.002 138.931 280.856 139.172C282.142 139.416 283.286 140.144 284.051 141.207Z" fill="#97008B"/>
<path d="M267.26 194.504L234.738 227.026C230.465 222.756 227.075 217.687 224.763 212.106C222.45 206.526 221.26 200.545 221.26 194.504C221.26 188.464 222.45 182.482 224.763 176.902C227.075 171.322 230.465 166.252 234.738 161.982L267.26 194.504Z" fill="#710068"/>
<path d="M242.226 117.897C242.626 117.973 243.008 118.127 243.348 118.35C243.689 118.573 243.982 118.862 244.211 119.199C244.44 119.535 244.6 119.914 244.683 120.313C244.765 120.712 244.768 121.123 244.691 121.523C244.629 121.869 244.504 122.201 244.321 122.502C243.765 121.672 242.908 121.09 241.931 120.88C241.367 120.741 240.779 120.717 240.205 120.808C239.63 120.9 239.08 121.106 238.586 121.413C238.509 120.923 238.552 120.422 238.71 119.951C238.868 119.481 239.137 119.055 239.493 118.711C239.85 118.366 240.285 118.112 240.761 117.97C241.236 117.829 241.739 117.804 242.226 117.897Z" fill="#97008B"/>
<path d="M244.321 122.502C247.908 127.612 243.838 142.894 244.501 154.541C238.554 157.933 233.438 162.608 229.525 168.226C225.612 173.845 223.001 180.265 221.882 187.019L193.24 181.545L139.197 171.215L143.356 149.451L143.895 146.655C150.606 147.547 156.973 106.159 168.488 101.108C168.456 101.847 168.69 102.573 169.146 103.155C169.603 103.737 170.252 104.136 170.978 104.282C171.703 104.427 172.456 104.308 173.101 103.946C173.747 103.585 174.241 103.005 174.497 102.311C182.627 112.254 164.249 162.377 180.848 165.159C197.753 167.994 198.397 104.65 210.128 98.7188C210.186 99.3527 210.438 99.9533 210.85 100.439C211.262 100.924 211.813 101.271 212.429 101.431C213.045 101.592 213.696 101.559 214.292 101.337C214.889 101.114 215.402 100.713 215.763 100.189C223.671 109.968 207.874 153.261 218.533 154.987C229.119 156.695 230.447 126.295 238.578 121.418C238.674 122.051 238.965 122.639 239.409 123.1C239.854 123.561 240.431 123.873 241.06 123.992C241.689 124.112 242.34 124.033 242.923 123.767C243.505 123.501 243.991 123.06 244.313 122.507L244.321 122.502Z" fill="#EBF0F0"/>
<path d="M241.931 120.88C242.908 121.09 243.765 121.672 244.321 122.502C243.999 123.056 243.513 123.496 242.931 123.762C242.348 124.028 241.697 124.107 241.068 123.987C240.439 123.868 239.862 123.556 239.417 123.095C238.973 122.634 238.682 122.047 238.586 121.413C239.08 121.106 239.63 120.9 240.205 120.808C240.779 120.717 241.366 120.741 241.931 120.88Z" fill="#97008B"/>
<path d="M213.795 95.3893C214.603 95.5445 215.316 96.0137 215.778 96.694C216.241 97.3742 216.415 98.21 216.262 99.0182C216.183 99.4374 216.016 99.8349 215.771 100.184C215.011 99.2164 213.922 98.5615 212.712 98.3436C211.831 98.1699 210.918 98.3004 210.121 98.7139C210.095 98.4267 210.109 98.1372 210.165 97.8542C210.24 97.4536 210.395 97.072 210.618 96.7311C210.842 96.3903 211.131 96.097 211.468 95.868C211.805 95.639 212.185 95.4788 212.584 95.3967C212.983 95.3145 213.395 95.312 213.795 95.3893Z" fill="#97008B"/>
<path d="M215.771 100.184C215.41 100.709 214.897 101.109 214.3 101.332C213.704 101.554 213.053 101.587 212.437 101.427C211.821 101.266 211.27 100.919 210.858 100.434C210.446 99.9485 210.194 99.3479 210.136 98.714C210.932 98.3005 211.846 98.1699 212.726 98.3437C213.932 98.5649 215.014 99.2194 215.771 100.184Z" fill="#97008B"/>
<path d="M195.744 70.6581C196.393 70.7814 196.991 71.0945 197.462 71.5577C197.933 72.0209 198.256 72.6135 198.39 73.2603C198.524 73.9072 198.464 74.5794 198.216 75.1918C197.968 75.8041 197.544 76.3292 196.997 76.7005C196.451 77.0718 195.806 77.2726 195.146 77.2776C194.485 77.2826 193.838 77.0915 193.286 76.7285C192.734 76.3655 192.302 75.8469 192.045 75.2383C191.788 74.6298 191.717 73.9586 191.841 73.3098C192.01 72.442 192.515 71.6761 193.246 71.1794C193.977 70.6826 194.875 70.4952 195.744 70.6581Z" fill="#EBF0F0"/>
<path d="M181.783 67.9919C182.432 68.1155 183.029 68.4285 183.499 68.8914C183.969 69.3543 184.292 69.9462 184.426 70.5924C184.559 71.2386 184.499 71.9099 184.251 72.5215C184.003 73.1331 183.579 73.6575 183.033 74.0283C182.488 74.3991 181.844 74.5997 181.184 74.6047C180.524 74.6097 179.878 74.4189 179.326 74.0564C178.775 73.6939 178.343 73.176 178.086 72.5682C177.829 71.9605 177.758 71.2901 177.882 70.642C178.049 69.7734 178.553 69.0064 179.284 68.5094C180.016 68.0125 180.915 67.8264 181.783 67.9919Z" fill="#EBF0F0"/>
<path d="M170.959 212.016L180.88 264.605L173.001 266.091L163.085 213.502L170.959 212.016Z" fill="#710068"/>
<path d="M172.167 98.1907C172.975 98.3459 173.688 98.8154 174.151 99.496C174.613 100.177 174.787 101.013 174.633 101.821C174.602 101.986 174.556 102.147 174.497 102.304C173.794 101.417 172.78 100.831 171.661 100.665C170.584 100.498 169.481 100.65 168.488 101.102C168.495 100.952 168.511 100.803 168.538 100.656C168.693 99.8478 169.162 99.1344 169.842 98.6723C170.523 98.2101 171.359 98.0369 172.167 98.1907Z" fill="#97008B"/>
<path d="M171.661 100.667C172.78 100.833 173.794 101.419 174.497 102.306C174.241 103 173.747 103.58 173.101 103.942C172.456 104.303 171.703 104.422 170.977 104.277C170.252 104.132 169.603 103.732 169.146 103.15C168.69 102.568 168.456 101.842 168.488 101.103C169.481 100.651 170.584 100.499 171.661 100.667Z" fill="#97008B"/>
<path d="M157.705 184.994L165.582 183.508L170.963 212.03L163.086 213.516L157.705 184.994Z" fill="#EBF0F0"/>
<path d="M167.83 65.3258C168.478 65.4493 169.075 65.7623 169.545 66.2252C170.015 66.6881 170.338 67.2801 170.472 67.9263C170.605 68.5724 170.545 69.2438 170.297 69.8554C170.049 70.467 169.625 70.9913 169.08 71.3621C168.534 71.7329 167.89 71.9335 167.23 71.9385C166.57 71.9435 165.924 71.7527 165.373 71.3902C164.821 71.0277 164.39 70.5098 164.133 69.9021C163.876 69.2943 163.805 68.6239 163.929 67.9758C164.096 67.1079 164.6 66.3416 165.332 65.8449C166.063 65.3482 166.961 65.1615 167.83 65.3258Z" fill="#EBF0F0"/>
<path d="M154.426 246.75L158.588 268.807V268.812L150.714 270.293L146.55 248.235L154.426 246.75Z" fill="#97008B"/>
<path d="M135.419 189.195L143.296 187.709L154.436 246.757L146.559 248.243L135.419 189.195Z" fill="#EBF0F0"/>
<path d="M128.814 233.329L136.298 273.014L128.422 274.5L120.934 234.815L128.808 233.329H128.814Z" fill="#DFB0DB"/>
<path d="M121 191.902L128.814 233.329H128.808L120.934 234.815L113.119 193.388L121 191.902Z" fill="#EBF0F0"/>
<path d="M118.457 64.3791C120.846 73.4311 120.167 83.0196 116.525 91.6444C110.256 106.217 108.598 122.36 111.774 137.903L111.943 138.721C112.37 140.745 112.008 142.855 110.931 144.621C109.854 146.387 108.142 147.674 106.147 148.22L104.813 148.568L104.796 148.508L88.7754 87.3618C87.6113 93.6086 84.0838 93.5764 81.0957 91.3772C83.0454 86.969 82.6477 79.8399 78.5921 80.9009C74.266 82.0279 77.222 88.5258 81.0957 91.3772C79.5774 94.8177 76.6279 96.6016 72.8847 91.5253L88.9025 152.68L88.9186 152.734L87.885 153.006C87.2388 153.167 86.5755 153.249 85.9096 153.251C84.1844 153.247 82.5053 152.694 81.1157 151.671C79.7262 150.649 78.6985 149.21 78.1816 147.565C73.3396 132.185 63.903 118.658 51.1416 108.804C45.7954 104.653 41.5154 99.2885 38.6564 93.1539C35.7973 87.0193 34.4415 80.2916 34.7014 73.5284C34.9613 66.7653 36.8293 60.1615 40.1506 54.2643C43.472 48.3672 48.151 43.3466 53.7999 39.6186C59.4488 35.8906 65.9049 33.5627 72.633 32.8277C79.3611 32.0928 86.1675 32.9719 92.4881 35.3924C98.8086 37.8128 104.461 41.7048 108.977 46.7458C113.494 51.7868 116.743 57.8315 118.457 64.3791Z" fill="#EBF0F0"/>
<path d="M114.349 158.802C114.487 159.321 114.521 159.861 114.449 160.392C114.377 160.923 114.201 161.435 113.93 161.898C113.659 162.361 113.3 162.766 112.872 163.089C112.444 163.413 111.957 163.648 111.438 163.782L91.1968 169.082C90.6783 169.218 90.1381 169.25 89.6072 169.177C89.0763 169.103 88.565 168.926 88.1025 168.655C87.6401 168.384 87.2355 168.025 86.912 167.598C86.5885 167.17 86.3524 166.684 86.2171 166.165C86.1274 165.828 86.0819 165.48 86.0818 165.131C86.0832 164.229 86.3828 163.353 86.9341 162.639C87.4854 161.926 88.2573 161.414 89.1296 161.185L109.369 155.885C110.254 155.654 111.19 155.725 112.03 156.086C112.598 156.333 113.102 156.705 113.504 157.176C113.905 157.647 114.194 158.203 114.349 158.802Z" fill="#DFB0DB"/>
<path d="M104.46 269.852L112.338 268.367L114.008 277.229L106.131 278.714L104.46 269.852Z" fill="#97008B"/>
<path d="M112.341 163.613C112.517 164.29 112.606 164.987 112.607 165.687C112.604 167.49 112.005 169.242 110.902 170.669C109.8 172.096 108.256 173.118 106.511 173.576L99.6815 175.361C98.6446 175.634 97.564 175.699 96.5017 175.554C95.4394 175.408 94.4162 175.055 93.4907 174.514C92.5651 173.972 91.7555 173.254 91.108 172.399C90.4605 171.544 89.9879 170.571 89.7172 169.533L112.341 163.613Z" fill="#DFB0DB"/>
<path d="M98.7075 196.109L112.335 268.361L104.46 269.847L90.8265 197.595L98.7075 196.109Z" fill="#EBF0F0"/>
<path d="M112.27 150.839C112.356 151.178 112.4 151.525 112.401 151.875C112.401 152.777 112.102 153.655 111.55 154.37C110.999 155.085 110.226 155.597 109.353 155.825L89.1135 161.126C88.497 161.289 87.8506 161.304 87.2272 161.17C86.6037 161.035 86.0209 160.756 85.5264 160.353C85.052 159.969 84.6691 159.484 84.4053 158.933C84.1416 158.383 84.0038 157.78 84.0017 157.17C84.003 156.268 84.3027 155.392 84.8539 154.678C85.4052 153.964 86.1772 153.453 87.0494 153.224L87.8883 153.006L88.9219 152.734L104.813 148.576L106.147 148.228L107.289 147.928C108.335 147.655 109.447 147.808 110.381 148.354C111.315 148.9 111.994 149.793 112.27 150.839Z" fill="#DFB0DB"/>
<path d="M104.792 148.516L104.808 148.576L88.917 152.734L88.9009 152.68L72.8831 91.5253C76.6279 96.6016 79.5774 94.8177 81.0941 91.3772C84.0822 93.5764 87.6097 93.6086 88.7738 87.3618L104.792 148.516Z" fill="#EBF0F0"/>
<path d="M78.5921 80.9009C82.6477 79.8399 83.0454 86.969 81.0957 91.3771C77.222 88.5258 74.266 82.0327 78.5921 80.9009Z" fill="#EBF0F0"/>
<path d="M70.8158 221.66C71.7947 226.856 70.67 232.228 67.6889 236.596C64.7078 240.963 60.1144 243.967 54.9187 244.949L53.8851 239.457C56.5602 238.953 59.0367 237.698 61.0257 235.84C63.0147 233.981 64.434 231.595 65.1181 228.96C65.8022 226.325 65.7229 223.55 64.8893 220.959C64.0557 218.368 62.5023 216.067 60.4104 214.325L64.1649 210.194C67.6315 213.14 69.9798 217.188 70.8158 221.66Z" fill="#DFB0DB"/>
<path d="M64.1649 210.194L60.4104 214.325C58.0343 212.34 55.0798 211.177 51.9882 211.01C48.8966 210.842 45.8338 211.68 43.2575 213.397C40.6812 215.114 38.7295 217.619 37.6941 220.537C36.6588 223.454 36.5952 226.629 37.513 229.586L37.4245 229.613L32.0052 230.637C31.8571 230.114 31.7379 229.586 31.6349 229.048C30.8687 224.994 31.3798 220.801 33.0976 217.049C34.8154 213.297 37.6552 210.171 41.2252 208.102C44.7953 206.032 48.9196 205.122 53.029 205.496C57.1385 205.87 61.0305 207.51 64.1682 210.19L64.1649 210.194Z" fill="#EBF0F0"/>
<path d="M59.2399 278.38L60.9111 287.235L45.9832 290.054L44.312 281.193L59.2399 278.38Z" fill="#97008B"/>
<path d="M56.7525 265.177L58.4236 274.032L43.4893 276.851L41.8197 267.991L56.7525 265.177Z" fill="#97008B"/>
<path d="M56.0731 175.059C56.218 175.834 56.1298 176.636 55.8196 177.361C55.5094 178.087 54.991 178.705 54.3301 179.136C53.6691 179.567 52.8951 179.793 52.1059 179.785C51.3167 179.776 50.5477 179.534 49.896 179.089C49.2443 178.644 48.7392 178.015 48.4444 177.283C48.1496 176.551 48.0784 175.748 48.2397 174.976C48.4011 174.203 48.7878 173.496 49.351 172.943C49.9142 172.39 50.6286 172.016 51.4041 171.869C51.9201 171.772 52.4502 171.777 52.9642 171.884C53.4782 171.992 53.966 172.2 54.3996 172.496C54.8332 172.792 55.2042 173.171 55.4914 173.611C55.7785 174.05 55.9762 174.542 56.0731 175.059Z" fill="#EBF0F0"/>
<path d="M54.2602 251.975L55.9314 260.828L40.997 263.647L39.3275 254.787L54.2602 251.975Z" fill="#97008B"/>
<path d="M53.8851 239.457L54.9187 244.949C50.0002 245.876 44.9128 244.919 40.6672 242.268C36.4216 239.617 33.3284 235.467 32.002 230.641L37.4212 229.617L37.5098 229.589C38.5512 232.958 40.7959 235.826 43.8159 237.645C46.836 239.465 50.4201 240.11 53.8851 239.457Z" fill="#97008B"/>
<path d="M39.3532 178.209C39.4994 178.985 39.4124 179.787 39.1032 180.513C38.7939 181.24 38.2762 181.858 37.6156 182.29C36.955 182.722 36.1811 182.949 35.3916 182.942C34.6022 182.934 33.8327 182.693 33.1804 182.248C32.5281 181.803 32.0223 181.175 31.7269 180.443C31.4314 179.711 31.3596 178.908 31.5206 178.135C31.6815 177.362 32.0679 176.654 32.631 176.101C33.1941 175.548 33.9086 175.174 34.6842 175.026C35.1998 174.929 35.7296 174.933 36.2433 175.04C36.757 175.148 37.2446 175.355 37.6782 175.65C38.1118 175.946 38.4829 176.324 38.7703 176.763C39.0577 177.202 39.2558 177.694 39.3532 178.209Z" fill="#EBF0F0"/>
<path d="M22.6349 181.367C22.7799 182.142 22.6917 182.944 22.3815 183.669C22.0713 184.395 21.5529 185.013 20.892 185.444C20.231 185.875 19.457 186.101 18.6678 186.093C17.8786 186.084 17.1096 185.842 16.4579 185.397C15.8062 184.952 15.3011 184.323 15.0063 183.591C14.7115 182.859 14.6403 182.056 14.8016 181.284C14.963 180.511 15.3497 179.804 15.9129 179.251C16.4761 178.698 17.1905 178.324 17.9659 178.177C18.482 178.079 19.0123 178.084 19.5265 178.192C20.0406 178.299 20.5285 178.507 20.9623 178.803C21.396 179.099 21.767 179.478 22.054 179.918C22.3411 180.358 22.5385 180.85 22.6349 181.367Z" fill="#EBF0F0"/>
<path d="M106.142 148.228C108.138 147.682 109.849 146.395 110.926 144.629C112.004 142.863 112.366 140.753 111.938 138.729L111.769 137.911C108.594 122.368 110.252 106.225 116.521 91.6525C119.597 84.3251 120.563 76.283 119.307 68.4356C118.051 60.5883 114.625 53.2488 109.415 47.2474C104.206 41.246 97.4206 36.8221 89.8276 34.476C82.2346 32.1299 74.1366 31.9553 66.4496 33.9719C58.7625 35.9885 51.7931 40.1159 46.3296 45.8872C40.8661 51.6584 37.1265 58.8434 35.5338 66.6293C33.941 74.4152 34.5587 82.4915 37.317 89.9447C40.0752 97.3979 44.864 103.931 51.1416 108.804C63.9 118.659 73.3338 132.186 78.1735 147.565C78.6904 149.21 79.7182 150.649 81.1077 151.671C82.4972 152.694 84.1763 153.247 85.9015 153.251C86.5675 153.249 87.2307 153.167 87.877 153.006" stroke="#97008B" stroke-width="1.352" stroke-linecap="round" stroke-linejoin="round"/>
<path d="M85.5216 160.356C85.0472 159.972 84.6642 159.487 84.4005 158.936C84.1368 158.386 83.9989 157.783 83.9969 157.173C83.9982 156.271 84.2978 155.395 84.8491 154.681C85.4004 153.967 86.1723 153.456 87.0446 153.227L87.8834 153.01L88.917 152.737L104.808 148.579L106.142 148.231L107.284 147.932C107.803 147.795 108.343 147.762 108.875 147.834C109.407 147.906 109.919 148.083 110.382 148.353C110.846 148.623 111.252 148.982 111.576 149.41C111.901 149.837 112.138 150.324 112.275 150.843C112.361 151.181 112.405 151.529 112.405 151.878C112.406 152.781 112.107 153.658 111.555 154.373C111.004 155.088 110.231 155.6 109.358 155.829L89.1135 161.126C88.497 161.289 87.8506 161.304 87.2272 161.17C86.6037 161.035 86.0209 160.756 85.5264 160.353" stroke="#97008B" stroke-width="1.352" stroke-linecap="round" stroke-linejoin="round"/>
<path d="M88.7754 87.3618L104.792 148.516" stroke="#97008B" stroke-width="1.352" stroke-linecap="round" stroke-linejoin="round"/>
<path d="M81.0957 91.3772C84.0839 93.5764 87.6114 93.6086 88.7754 87.3618" stroke="#97008B" stroke-width="1.352" stroke-linecap="round" stroke-linejoin="round"/>
<path d="M81.0957 91.3771C83.0454 86.969 82.6477 79.8399 78.5921 80.9009C74.266 82.0327 77.222 88.5258 81.0957 91.3771Z" stroke="#97008B" stroke-width="1.352" stroke-linecap="round" stroke-linejoin="round"/>
<path d="M88.9009 152.679L72.8831 91.5253C76.6279 96.6016 79.5774 94.8177 81.0941 91.3771" stroke="#97008B" stroke-width="1.352" stroke-linecap="round" stroke-linejoin="round"/>
<path d="M112.03 156.086C112.809 156.425 113.462 156.998 113.9 157.725C114.338 158.453 114.538 159.299 114.473 160.145C114.408 160.992 114.08 161.797 113.536 162.448C112.992 163.1 112.259 163.566 111.438 163.782L91.1968 169.082C90.6783 169.218 90.1381 169.25 89.6072 169.177C89.0763 169.103 88.565 168.926 88.1025 168.655C87.6401 168.384 87.2355 168.025 86.912 167.598C86.5885 167.17 86.3524 166.684 86.2171 166.165C86.1274 165.828 86.0819 165.48 86.0818 165.131C86.0832 164.229 86.3828 163.353 86.9341 162.639C87.4854 161.926 88.2573 161.414 89.1296 161.185L109.369 155.885C110.254 155.654 111.19 155.725 112.03 156.086Z" stroke="#97008B" stroke-width="1.352" stroke-linecap="round" stroke-linejoin="round"/>
<path d="M106.794 173.964L99.9643 175.75C98.9273 176.022 97.8468 176.088 96.7845 175.942C95.7221 175.797 94.699 175.444 93.7734 174.902C92.8479 174.361 92.0382 173.642 91.3907 172.788C90.7432 171.933 90.2706 170.959 90 169.922L112.624 164C112.8 164.677 112.889 165.374 112.889 166.074C112.887 167.877 112.288 169.63 111.185 171.057C110.083 172.484 108.539 173.507 106.794 173.964Z" stroke="#97008B" stroke-width="1.352" stroke-linecap="round" stroke-linejoin="round"/>
<path d="M290.396 154.753C300.591 160.705 308.077 170.383 311.275 181.747C314.472 193.111 313.132 205.273 307.536 215.667C301.94 226.062 292.526 233.878 281.28 237.466C270.033 241.054 257.832 240.135 247.25 234.901C236.668 229.668 228.532 220.529 224.558 209.413C220.583 198.297 221.081 186.072 225.946 175.315C230.811 164.559 239.663 156.112 250.635 151.756C261.608 147.4 273.843 147.476 284.761 151.966C286.702 152.761 288.585 153.69 290.396 154.748" stroke="#97008B" stroke-width="1.352" stroke-linecap="round" stroke-linejoin="round"/>
<path d="M111.797 155.4L111.9 155.38L143.356 149.447" stroke="#97008B" stroke-width="1.352" stroke-linecap="round" stroke-linejoin="round"/>
<path d="M193.24 181.54L210.878 275.06L32.5461 308.705L7.34802 175.102L85.5216 160.353H85.5264" stroke="#97008B" stroke-width="1.352" stroke-linecap="round" stroke-linejoin="round"/>
<path d="M29.7705 191.489L135.834 171.478" stroke="#97008B" stroke-width="1.352" stroke-linecap="round" stroke-linejoin="round"/>
<path d="M22.6349 181.367C22.7799 182.142 22.6917 182.944 22.3815 183.669C22.0713 184.395 21.5529 185.013 20.892 185.444C20.231 185.875 19.457 186.101 18.6678 186.093C17.8786 186.084 17.1096 185.842 16.4579 185.397C15.8062 184.952 15.3011 184.323 15.0063 183.591C14.7115 182.859 14.6403 182.056 14.8016 181.284C14.963 180.511 15.3497 179.804 15.9129 179.251C16.4761 178.698 17.1905 178.324 17.9659 178.177C18.482 178.079 19.0123 178.084 19.5265 178.192C20.0406 178.299 20.5285 178.507 20.9623 178.803C21.396 179.099 21.767 179.478 22.054 179.918C22.3411 180.358 22.5385 180.85 22.6349 181.367Z" stroke="#97008B" stroke-width="1.352" stroke-linecap="round" stroke-linejoin="round"/>
<path d="M39.3532 178.209C39.4994 178.985 39.4124 179.787 39.1032 180.513C38.7939 181.24 38.2762 181.858 37.6156 182.29C36.955 182.722 36.1811 182.949 35.3916 182.942C34.6022 182.934 33.8327 182.693 33.1804 182.248C32.5281 181.803 32.0223 181.175 31.7269 180.443C31.4314 179.711 31.3596 178.908 31.5206 178.135C31.6815 177.362 32.0679 176.654 32.631 176.101C33.1941 175.548 33.9086 175.174 34.6842 175.026C35.1998 174.929 35.7296 174.933 36.2433 175.04C36.757 175.148 37.2446 175.355 37.6782 175.65C38.1118 175.946 38.4829 176.324 38.7703 176.763C39.0577 177.202 39.2558 177.694 39.3532 178.209Z" stroke="#97008B" stroke-width="1.352" stroke-linecap="round" stroke-linejoin="round"/>
<path d="M56.0731 175.059C56.218 175.834 56.1298 176.636 55.8196 177.361C55.5094 178.087 54.991 178.705 54.3301 179.136C53.6691 179.567 52.8951 179.793 52.1059 179.785C51.3167 179.776 50.5477 179.534 49.896 179.089C49.2443 178.644 48.7392 178.015 48.4444 177.283C48.1496 176.551 48.0784 175.748 48.2397 174.976C48.4011 174.203 48.7878 173.496 49.351 172.943C49.9142 172.39 50.6286 172.016 51.4041 171.869C51.9201 171.772 52.4502 171.777 52.9642 171.884C53.4782 171.992 53.966 172.2 54.3996 172.496C54.8332 172.792 55.2042 173.171 55.4914 173.611C55.7785 174.05 55.9762 174.542 56.0731 175.059Z" stroke="#97008B" stroke-width="1.352" stroke-linecap="round" stroke-linejoin="round"/>
<path d="M221.882 187.014L193.24 181.54L139.197 171.211L143.356 149.447L143.895 146.65L160.515 59.6811L303.348 86.9851L290.396 154.748V154.753" stroke="#97008B" stroke-width="1.352" stroke-linecap="round" stroke-linejoin="round"/>
<path d="M173.419 78.0109L287.06 99.7314" stroke="#97008B" stroke-width="1.352" stroke-linecap="round" stroke-linejoin="round"/>
<path d="M170.48 69.23C170.356 69.8777 170.043 70.4742 169.58 70.944C169.117 71.4138 168.526 71.7358 167.88 71.8694C167.234 72.0029 166.563 71.942 165.952 71.6943C165.341 71.4466 164.817 71.0233 164.447 70.4778C164.076 69.9323 163.875 69.2893 163.87 68.6298C163.865 67.9704 164.056 67.3243 164.418 66.7732C164.78 66.2221 165.298 65.7907 165.905 65.5337C166.512 65.2766 167.182 65.2054 167.83 65.329C168.26 65.4111 168.67 65.5771 169.036 65.8176C169.402 66.0581 169.717 66.3683 169.963 66.7305C170.209 67.0928 170.381 67.5 170.47 67.9288C170.559 68.3577 170.562 68.7998 170.48 69.23Z" stroke="#97008B" stroke-width="1.352" stroke-linecap="round" stroke-linejoin="round"/>
<path d="M184.435 71.8945C184.311 72.5426 183.998 73.1394 183.535 73.6094C183.072 74.0795 182.48 74.4018 181.834 74.5355C181.188 74.6692 180.517 74.6083 179.906 74.3605C179.294 74.1128 178.77 73.6892 178.399 73.1435C178.028 72.5978 177.828 71.9545 177.823 71.2947C177.817 70.635 178.008 69.9886 178.37 69.4371C178.733 68.8857 179.25 68.4541 179.858 68.1969C180.465 67.9396 181.135 67.8683 181.783 67.9919C182.214 68.0734 182.624 68.2391 182.991 68.4795C183.358 68.7199 183.673 69.0303 183.919 69.3928C184.166 69.7554 184.338 70.163 184.427 70.5923C184.515 71.0216 184.518 71.4641 184.435 71.8945Z" stroke="#97008B" stroke-width="1.352" stroke-linecap="round" stroke-linejoin="round"/>
<path d="M198.394 74.5671C198.269 75.2147 197.955 75.8106 197.491 76.2797C197.028 76.7488 196.435 77.0699 195.789 77.2026C195.143 77.3352 194.473 77.2734 193.862 77.025C193.251 76.7765 192.727 76.3526 192.357 75.8067C191.987 75.2609 191.787 74.6175 191.783 73.9581C191.778 73.2986 191.969 72.6526 192.331 72.1016C192.694 71.5506 193.211 71.1194 193.819 70.8625C194.426 70.6056 195.096 70.5344 195.744 70.6581C196.613 70.8257 197.381 71.3315 197.877 72.0644C198.374 72.7973 198.56 73.6974 198.394 74.5671Z" stroke="#97008B" stroke-width="1.352" stroke-linecap="round" stroke-linejoin="round"/>
<path d="M284.051 141.207C285.269 143.02 285.553 146.214 284.769 151.966" stroke="#97008B" stroke-width="1.352" stroke-linecap="round" stroke-linejoin="round"/>
<path d="M272.724 148.516C274.309 144.108 275.882 140.434 278.28 139.357" stroke="#97008B" stroke-width="1.352" stroke-linecap="round" stroke-linejoin="round"/>
<path d="M244.321 122.502C247.908 127.612 243.838 142.894 244.501 154.541" stroke="#97008B" stroke-width="1.352" stroke-linecap="round" stroke-linejoin="round"/>
<path d="M215.771 100.184C223.679 109.963 207.882 153.256 218.541 154.982C229.127 156.69 230.455 126.29 238.586 121.413" stroke="#97008B" stroke-width="1.352" stroke-linecap="round" stroke-linejoin="round"/>
<path d="M174.497 102.306C182.627 112.249 164.249 162.372 180.848 165.154C197.753 167.989 198.397 104.645 210.128 98.7139" stroke="#97008B" stroke-width="1.352" stroke-linecap="round" stroke-linejoin="round"/>
<path d="M143.895 146.65C150.606 147.542 156.973 106.154 168.488 101.103" stroke="#97008B" stroke-width="1.352" stroke-linecap="round" stroke-linejoin="round"/>
<path d="M64.1649 210.194C66.5373 212.218 68.4016 214.771 69.6078 217.647C70.8141 220.523 71.3287 223.642 71.1102 226.754C70.8918 229.865 69.9465 232.881 68.3502 235.561C66.7539 238.24 64.5512 240.507 61.9192 242.181C59.2872 243.854 56.2994 244.886 53.1958 245.195C50.0923 245.503 46.9597 245.079 44.0498 243.957C41.14 242.834 38.5341 241.045 36.4416 238.732C34.3491 236.419 32.8285 233.648 32.002 230.641C31.8538 230.117 31.7347 229.589 31.6317 229.052C30.8655 224.997 31.3766 220.804 33.0943 217.052C34.8121 213.3 37.652 210.174 41.222 208.105C44.7921 206.035 48.9163 205.125 53.0258 205.499C57.1352 205.873 61.0273 207.513 64.1649 210.194Z" stroke="#97008B" stroke-width="1.352" stroke-linecap="round" stroke-linejoin="round"/>
<path d="M60.4104 214.325C62.9177 216.413 64.639 219.292 65.2908 222.489C65.9427 225.686 65.4862 229.009 63.9965 231.912C62.5069 234.815 60.0729 237.124 57.0956 238.458C54.1183 239.792 50.7753 240.073 47.6173 239.253C44.4593 238.434 41.6746 236.563 39.7221 233.949C37.7696 231.335 36.7657 228.134 36.8757 224.873C36.9858 221.612 38.2032 218.486 40.3276 216.01C42.4519 213.533 45.3563 211.855 48.5624 211.25C50.6417 210.851 52.7836 210.921 54.8328 211.453C56.882 211.985 58.7872 212.966 60.4104 214.325Z" stroke="#97008B" stroke-width="1.352" stroke-linecap="round" stroke-linejoin="round"/>
<path d="M53.8851 239.457L54.9187 244.949" stroke="#97008B" stroke-width="1.352" stroke-linecap="round" stroke-linejoin="round"/>
<path d="M60.4104 214.325L64.1649 210.194" stroke="#97008B" stroke-width="1.352" stroke-linecap="round" stroke-linejoin="round"/>
<path d="M37.4212 229.617L32.0019 230.641L31.9359 230.652" stroke="#97008B" stroke-width="1.352" stroke-linecap="round" stroke-linejoin="round"/>
<path d="M180.88 264.605L197.31 261.504L182.339 182.133" stroke="#97008B" stroke-width="1.352" stroke-linecap="round" stroke-linejoin="round"/>
<path d="M158.588 268.807L173.001 266.091" stroke="#97008B" stroke-width="1.352" stroke-linecap="round" stroke-linejoin="round"/>
<path d="M150.714 270.293L158.588 268.812" stroke="#97008B" stroke-width="1.352" stroke-linecap="round" stroke-linejoin="round"/>
<path d="M136.298 273.014L150.714 270.298" stroke="#97008B" stroke-width="1.352" stroke-linecap="round" stroke-linejoin="round"/>
<path d="M114.006 277.221L128.422 274.5" stroke="#97008B" stroke-width="1.352" stroke-linecap="round" stroke-linejoin="round"/>
<path d="M91.2194 281.52L106.131 278.707" stroke="#97008B" stroke-width="1.352" stroke-linecap="round" stroke-linejoin="round"/>
<path d="M55.9314 260.828L40.997 263.647L39.3275 254.787L54.2602 251.975L55.9314 260.828Z" stroke="#97008B" stroke-width="1.352" stroke-linecap="round" stroke-linejoin="round"/>
<path d="M58.4236 274.032L43.4893 276.851L41.8197 267.991L56.7525 265.177L58.4236 274.032Z" stroke="#97008B" stroke-width="1.352" stroke-linecap="round" stroke-linejoin="round"/>
<path d="M60.9111 287.235L45.9832 290.054L44.312 281.193L59.2399 278.38L60.9111 287.235Z" stroke="#97008B" stroke-width="1.352" stroke-linecap="round" stroke-linejoin="round"/>
<path d="M114.006 277.221L106.131 278.707L104.46 269.847L90.8265 197.595L98.7075 196.109L112.335 268.361L114.006 277.221Z" stroke="#97008B" stroke-width="1.352" stroke-linecap="round" stroke-linejoin="round"/>
<path d="M136.298 273.014L128.422 274.5L120.934 234.815L113.119 193.388L121 191.902L128.814 233.329L136.298 273.014Z" stroke="#97008B" stroke-width="1.352" stroke-linecap="round" stroke-linejoin="round"/>
<path d="M158.588 268.812L150.714 270.298V270.293L146.55 248.235L135.411 189.186L143.285 187.7L154.426 246.75L158.588 268.807V268.812Z" stroke="#97008B" stroke-width="1.352" stroke-linecap="round" stroke-linejoin="round"/>
<path d="M180.88 264.605L173.001 266.091L163.085 213.502L157.701 184.979L165.577 183.493L170.959 212.016L180.88 264.605Z" stroke="#97008B" stroke-width="1.352" stroke-linecap="round" stroke-linejoin="round"/>
<path d="M104.46 269.847L112.335 268.361" stroke="#97008B" stroke-width="1.352" stroke-linecap="round" stroke-linejoin="round"/>
<path d="M120.934 234.815L128.808 233.329" stroke="#97008B" stroke-width="1.352" stroke-linecap="round" stroke-linejoin="round"/>
<path d="M146.55 248.235L154.426 246.75" stroke="#97008B" stroke-width="1.352" stroke-linecap="round" stroke-linejoin="round"/>
<path d="M163.085 213.502L170.959 212.016" stroke="#97008B" stroke-width="1.352" stroke-linecap="round" stroke-linejoin="round"/>
<path d="M299.779 161.985L267.26 194.504L234.743 227.021" stroke="#97008B" stroke-width="1.352" stroke-linecap="round" stroke-linejoin="round"/>
<path d="M234.743 161.985L267.26 194.504" stroke="#97008B" stroke-width="1.352" stroke-linecap="round" stroke-linejoin="round"/>
<path d="M63.7946 26.8709L59.8598 12.2843" stroke="#97008B" stroke-width="1.352" stroke-linecap="round" stroke-linejoin="round"/>
<path d="M80.8461 26.8709L82.4352 13.7929" stroke="#97008B" stroke-width="1.352" stroke-linecap="round" stroke-linejoin="round"/>
<path d="M48.7411 36.906L40.0777 26.8709" stroke="#97008B" stroke-width="1.352" stroke-linecap="round" stroke-linejoin="round"/>
</svg>
