<svg width="322" height="322" viewBox="0 0 322 322" fill="none" xmlns="http://www.w3.org/2000/svg">
<path d="M114.385 233.564C117.069 232.614 119.818 231.86 122.612 231.31L122.95 232.55C122.988 232.696 123.077 232.824 123.201 232.91C123.325 232.995 123.476 233.033 123.626 233.017L134.687 231.729C137.73 224.79 143.317 214.277 143.397 214.116C143.317 211.491 143.397 209.286 143.397 206.774C137.07 209.125 125.365 213.584 119.247 216.434C119.109 216.523 119.002 216.653 118.941 216.806C118.881 216.959 118.869 217.128 118.909 217.287C118.909 217.287 119.022 217.69 119.167 218.269C116.172 218.269 107.204 217.835 105.047 219.879C104.712 220.347 104.547 220.915 104.58 221.489C104.451 223.711 105.562 240.97 107.333 246.042C108.251 248.698 110.183 248.409 111.503 245.865C113.031 242.034 114.012 238.007 114.417 233.902C114.417 233.693 114.369 233.709 114.385 233.564ZM112.533 219.155C114.498 218.994 115.109 219.026 119.328 218.897C120.084 221.763 121.646 227.656 122.451 230.666C119.61 231.106 116.807 231.758 114.063 232.614C113.208 228.174 112.697 223.674 112.533 219.155Z" fill="#97008B"/>
<path d="M262.569 78.2477C262.972 77.6842 262.457 76.9597 262.022 76.3962C263.253 75.1296 264.619 74.0013 266.095 73.0313C268.586 71.7899 270.863 70.1595 272.841 68.2013C273.662 67.348 275.208 65.5931 274.628 64.5627C274.049 63.5323 273.018 63.4679 271.618 64.0636C272.224 63.4264 272.72 62.6917 273.083 61.8901C273.533 60.6343 272.471 59.62 270.169 60.5538C271.006 59.2175 271.199 57.8168 269.782 57.1406C268.639 56.5932 266.965 57.8973 265.999 58.7506C264.102 60.408 262.321 62.1939 260.67 64.0958C259.655 61.9706 258.045 59.5234 256.033 60.2962C254.02 61.069 255.582 64.5305 256.612 66.4142L252.958 68.9419C252.405 68.6437 251.781 68.5044 251.154 68.5394C247.001 69.2478 227.922 83.77 225.99 83.77C224.509 83.77 203.354 73.627 185.064 70.6968C185.029 70.5871 184.963 70.4896 184.875 70.4156C184.786 70.3415 184.679 70.2939 184.565 70.2782C181.375 69.7338 178.14 69.4913 174.905 69.5537C174.807 69.5603 174.711 69.5882 174.625 69.6355C174.539 69.6827 174.464 69.7482 174.406 69.8274H173.053C172.731 68.5233 171.54 65.5126 171.121 64.3534C172.216 63.4035 173.73 62.9205 174.518 61.391C175.967 58.5574 175.903 53.6308 175.501 50.4752C177.32 49.0906 177.368 46.8688 176.95 44.5987C176.789 43.681 176.289 41.6041 175.517 41.0889C175.082 40.7991 174.164 41.0889 173.375 41.3787C172.586 39.5433 172.586 40.3805 172.908 39.6399C173.058 39.2986 173.145 38.9333 173.166 38.5612C174.019 38.8188 175.79 37.1122 175.179 34.8582C174.858 34.0513 174.465 33.2753 174.003 32.5398C174.229 31.9924 174.712 31.3323 173.198 29.3198C172.546 28.6167 171.7 28.1235 170.767 27.903H170.027C169.492 27.1274 168.708 26.559 167.805 26.293C166.441 25.9453 164.995 26.1477 163.78 26.8565C163.458 27.098 163.2 27.42 162.878 27.6454C162.15 27.2034 161.315 26.9696 160.463 26.9696C159.611 26.9696 158.776 27.2034 158.048 27.6454C157.622 27.8126 157.234 28.0643 156.908 28.3852C156.581 28.7061 156.323 29.0898 156.148 29.513C155.359 29.2408 154.523 29.136 153.691 29.2053C152.859 29.2746 152.051 29.5165 151.318 29.9155C148.537 31.4237 146.457 33.9606 145.522 36.9834C145.496 37.4392 145.496 37.8961 145.522 38.3519H145.345C142.93 37.9977 139.855 43.7293 142.318 48.189C142.608 48.7203 142.979 49.2194 143.333 49.799C144.363 51.409 143.961 51.892 146.263 53.8562C146.939 54.4358 147.052 54.3875 147.47 54.7417C147.889 55.0959 147.728 54.9188 147.97 55.8204C148.101 56.3515 148.337 56.8512 148.663 57.2907C148.989 57.7301 149.399 58.1004 149.869 58.3803C150.04 59.9551 150.712 61.4335 151.785 62.5985C152.125 62.9789 152.522 63.3047 152.961 63.5645C153.079 63.6312 153.211 63.6698 153.347 63.6772C153.83 66.6718 154.426 70.568 154.683 72.2263L153.25 72.9991C151.376 73.7534 149.552 74.6301 147.792 75.6234C147.654 75.7189 147.557 75.8624 147.519 76.0259C145.812 76.9275 144.202 77.7808 143.284 78.3282C130.501 85.9113 94.1955 135.902 93.8252 138.188C93.7844 138.319 93.7844 138.459 93.8252 138.59C94.3456 139.421 94.9797 140.174 95.7089 140.828C95.4842 141.238 95.2142 141.622 94.9039 141.971C91.6839 144.081 86.8539 147.22 84.2618 150.021C84.08 150.184 83.9436 150.39 83.8661 150.621C83.7886 150.852 83.7726 151.099 83.8198 151.338C83.8669 151.577 83.9755 151.8 84.1349 151.984C84.2943 152.168 84.499 152.307 84.7287 152.388C85.2117 152.549 85.2922 152.501 88.4317 150.778C87.5689 151.535 86.8632 152.454 86.3548 153.483C86.1455 154.368 86.9505 154.884 87.9648 154.723C88.5355 154.573 89.0789 154.334 89.5748 154.014C89.2845 154.463 89.1299 154.985 89.1299 155.52C89.1299 156.054 89.2845 156.577 89.5748 157.025C91.1848 159.054 95.403 152.662 97.6248 151.084C98.5264 152.227 99.75 154.9 101.698 154.191C103.389 153.564 101.537 149.844 101.698 148.766C102.353 148.137 103.053 147.556 103.791 147.027C105.033 147.948 106.453 148.6 107.961 148.943C110.618 148.943 138.342 120.961 140.451 118.723C139.694 125.839 135.878 156.381 136.683 162.322C137.054 165.011 143.51 165.397 146.231 165.542C145.41 184.862 144.862 214.132 144.717 214.438C140.451 223.631 139.292 226.142 137.859 228.928C135.251 233.919 124.27 252.337 123.031 256.523C122.854 257.183 122.837 257.441 123.53 258.664C121.455 260.845 119.529 263.164 117.766 265.603C116.88 267.213 120.68 282.219 123.369 287.532C123.981 288.723 124.979 290.558 126.315 290.51C130.34 290.365 130.324 275.907 130.211 271.866C130.211 271.742 130.165 271.622 130.082 271.528C130.812 270.439 131.608 269.396 132.465 268.405C132.977 268.757 133.515 269.069 134.075 269.339C134.623 269.58 135.234 269.162 135.685 268.791C141.047 264.573 169.962 228.541 176.161 211.54C178.978 203.779 182.729 193.057 183.792 185.458C184.442 180.653 184.501 175.787 183.969 170.968C183.969 170.899 183.996 170.834 184.045 170.785C184.093 170.737 184.158 170.71 184.227 170.71C184.295 170.71 184.361 170.737 184.409 170.785C184.457 170.834 184.484 170.899 184.484 170.968C185.291 175.814 185.448 180.747 184.951 185.635C183.76 196.18 175.436 218.157 170.993 226.239C174.824 225.531 182.617 223.985 186.384 222.858C198.942 219.042 210.534 207.66 211.548 194.876C211.877 188.854 211.877 182.818 211.548 176.796C211.44 168.482 210.359 160.209 208.328 152.147C211.742 150.295 214.865 148.122 215.879 146.125C218.053 141.859 212.305 117.306 211.049 110.416C217.924 111.172 229.629 112.541 235.087 108.274C241.333 103.251 254.825 89.1152 262.569 78.2477ZM129.342 270.981C126.444 269.226 122.387 265.056 121.775 261.788C122.435 260.951 123.127 260.178 123.771 259.308C125.953 262.638 128.674 265.581 131.821 268.018C130.937 268.956 130.109 269.945 129.342 270.981ZM257.337 66.865C257.42 66.8119 257.48 66.7288 257.504 66.633C257.528 66.5372 257.514 66.4359 257.466 66.3498C256.902 65.3033 255.212 61.6164 256.387 61.1978C257.063 60.9402 257.659 61.3588 258.158 61.9223C258.92 62.8892 259.513 63.9778 259.913 65.1423C259.943 65.237 259.998 65.3218 260.072 65.3876C260.146 65.4534 260.237 65.4978 260.335 65.516C260.432 65.5342 260.533 65.5255 260.626 65.4909C260.719 65.4562 260.801 65.397 260.863 65.3194C262.473 63.5323 266.24 59.459 268.365 58.3642C269.975 57.527 270.362 59.0726 266.417 62.679C265.511 63.3698 264.641 64.106 263.809 64.8847C263.763 64.9479 263.739 65.024 263.739 65.1021C263.739 65.1801 263.763 65.2562 263.809 65.3194C263.809 65.738 264.147 66.2049 264.727 65.7702C266.126 64.5417 267.605 63.4069 269.154 62.3731C269.945 61.8114 270.864 61.4572 271.827 61.3427C271.344 62.8239 266.852 66.8489 266.466 67.2997C266.343 67.4096 266.269 67.5631 266.258 67.7273C266.248 67.8916 266.302 68.0533 266.41 68.1778C266.517 68.3023 266.669 68.3796 266.833 68.393C266.998 68.4064 267.16 68.3549 267.287 68.2496C269.074 67.0904 272.197 64.3856 273.276 64.7881C274.355 65.1906 271.151 68.1852 270.346 68.8936C265.725 72.9025 266.916 70.3265 261.571 75.7683C259.244 73.2195 256.573 71.0085 253.634 69.1995L257.337 66.865ZM187.382 143.871C187.109 141.649 186.771 139.251 186.352 136.755L187.044 135.837C190.264 131.7 191.23 125.115 190.924 119.947C192.647 127.498 194.016 134.92 195.062 142.294L187.382 143.871ZM163.442 88.7449C159.207 85.5249 152.397 79.9704 148.436 76.1708L154.876 72.9508C160.79 78.4744 165.852 84.8441 169.898 91.8522C176.084 103.216 180.672 115.379 183.534 127.997L160.576 95.523L163.57 89.3084C163.61 89.2127 163.619 89.1071 163.596 89.0061C163.573 88.9051 163.519 88.8139 163.442 88.7449ZM174.325 70.4875C174.422 70.6646 175.533 73.0313 177.223 77.169C177.223 77.3461 176.917 81.3711 176.772 82.7879C174.718 81.9734 172.78 80.8907 171.009 79.5679C171.363 78.1672 172.957 71.8077 173.069 70.3748L174.325 70.4875ZM168.61 87.7789C168.722 87.4891 168.835 87.1027 168.964 86.6519L170.043 87.2154C170.654 87.6179 170.413 86.3943 170.96 89.9363C170.96 90.532 171.121 91.1921 171.154 91.9166C170.413 90.5803 169.495 89.1474 168.626 87.7789H168.61ZM167.708 86.4265C164.666 82.1123 161.204 78.1106 157.372 74.4803L169.495 79.745C169.028 80.8559 168.352 84.253 167.724 86.4265H167.708ZM180.089 95.8611C178.479 91.4658 177.239 86.5553 176.628 85.2673C176.664 84.8656 176.664 84.4615 176.628 84.0598C176.86 84.1465 177.104 84.2007 177.352 84.2208C177.507 84.2226 177.658 84.1681 177.776 84.0675C177.895 83.9669 177.973 83.827 177.996 83.6734C178.125 83.1421 178.334 80.4534 178.366 79.8577C183.05 91.6824 186.96 103.799 190.071 116.131C180.975 96.7788 182.375 102.382 180.105 95.8611H180.089ZM193.404 126.596C189.733 108.999 183.277 87.0544 175.935 70.7934C178.631 70.7949 181.323 71.0102 183.985 71.4374C185.354 83.6734 184.211 83.2548 185.128 83.7378C186.046 84.2208 191.568 86.4426 192.389 86.7807C192.309 88.0204 193.468 123.473 193.42 126.596H193.404ZM174.873 42.1193C175.712 43.9509 176.008 45.9848 175.726 47.9797C175.595 48.4874 175.325 48.9488 174.948 49.3125C174.57 49.6762 174.099 49.928 173.586 50.0398C173.074 50.1516 172.541 50.1191 172.046 49.9458C171.551 49.7725 171.114 49.4653 170.783 49.0584C170.015 47.4401 169.437 45.7383 169.061 43.9869C169.495 43.4234 174.132 42.2964 174.873 42.1193ZM152.719 58.2193C152.131 57.9515 151.529 57.7151 150.916 57.5109C150.504 57.3418 150.137 57.0806 149.842 56.7475C149.547 56.4144 149.332 56.0182 149.214 55.5892C149.096 55.1603 149.078 54.7099 149.161 54.2728C149.243 53.8356 149.425 53.4233 149.692 53.0673C150.707 52.214 151.624 52.2623 152.461 53.5342C152.993 54.5163 152.977 54.5968 153.218 54.6934C153.287 54.7239 153.362 54.7393 153.438 54.7385C153.514 54.7377 153.588 54.7207 153.657 54.6887C153.726 54.6567 153.787 54.6104 153.836 54.5529C153.885 54.4954 153.922 54.428 153.943 54.3553C154.181 53.3475 154.22 52.3027 154.055 51.2802C153.862 50.1693 153.83 45.2427 153.862 45.0817C154.332 45.3296 154.861 45.4464 155.392 45.4198C158.306 45.3071 158.885 43.8098 160.045 42.5862C161.381 42.715 161.655 43.359 163.168 42.5862C163.877 42.1831 164.527 41.6847 165.1 41.105C165.563 41.2944 166.01 41.5206 166.436 41.7812C167.401 42.2452 168.489 42.3877 169.541 42.1878C170.593 41.9878 171.553 41.456 172.281 40.6703C172.458 41.0084 172.619 41.3465 172.764 41.7007C171.284 42.1598 169.891 42.8617 168.642 43.7776C168.368 44.1157 168.771 45.9511 168.867 46.3858C167.519 46.5555 166.214 46.9759 165.019 47.6255C164.778 46.7883 164.247 45.2266 163.409 44.7919C163.158 44.7148 162.888 44.7148 162.637 44.7919C161.188 45.0173 155.987 46.579 155.359 47.4323C154.812 48.028 156.374 52.6326 156.857 53.3893C158.708 56.2551 164.134 55.4179 165.148 52.0691C165.399 50.9452 165.399 49.7798 165.148 48.6559C165.615 48.6559 167.016 48.1568 167.177 48.1085C168.288 50.604 168.61 50.7489 169.898 53.4376C169.721 53.5825 169.431 53.824 169.189 53.985C168.046 54.7417 167.805 54.6129 167.869 54.9349C167.888 54.9988 167.929 55.0537 167.986 55.0893C168.042 55.1248 168.109 55.1386 168.175 55.1281C168.851 55.0316 169.511 54.8475 170.139 54.5807C170.515 54.4405 170.825 54.1649 171.009 53.8079C171.459 52.7936 168.964 48.9779 167.982 47.8348C168.175 47.8348 168.626 47.5128 168.964 47.3357C169.415 49.1389 169.721 50.5557 171.459 51.2641C171.962 51.4538 172.498 51.5402 173.034 51.5181C173.571 51.4959 174.098 51.3658 174.583 51.1353C174.84 53.9689 174.792 58.5735 173.44 61.0851C172.747 62.3892 171.041 62.8883 169.946 63.967C169.624 64.2729 169.833 64.7076 169.946 65.1745C171.733 70.1494 171.765 70.1333 171.669 70.7773C171.195 73.4502 170.533 76.0864 169.688 78.6663C169.286 78.4892 164.762 76.0903 155.907 72.6449C155.633 70.8256 154.168 61.1173 153.701 59.3302C153.733 58.7023 153.653 58.5574 152.719 58.1388V58.2193ZM163.989 51.6505C163.474 53.4054 161.043 54.1621 159.304 53.6791C157.565 53.1961 157.452 52.3106 156.631 50.2176C156.246 49.418 155.981 48.5664 155.842 47.6899C156.374 47.1103 162.186 45.9189 162.91 45.8062C163.927 47.5446 164.308 49.5818 163.989 51.57V51.6505ZM100.99 148.315C100.378 148.911 101.199 150.859 101.328 152.549C101.328 152.694 101.328 153.322 101.231 153.37C100.346 153.66 99.5246 152.324 99.0255 151.519C98.5264 150.714 98.0273 149.619 97.2384 149.909C95.6284 150.665 91.8932 155.624 90.4281 156.14C89.6875 154.723 93.9218 150.682 94.0667 150.456C94.1289 150.353 94.1614 150.234 94.1608 150.113C94.1603 149.993 94.1266 149.874 94.0636 149.772C94.0005 149.669 93.9104 149.585 93.8031 149.53C93.6958 149.474 93.5754 149.45 93.4549 149.458C93.1651 149.458 92.9719 149.716 92.5211 150.118C91.15 151.456 89.5805 152.575 87.8682 153.435C89.4207 151.654 91.0822 149.971 92.8431 148.395C92.9301 148.306 92.9913 148.195 93.0202 148.073C93.0202 148.073 92.6821 147.22 92.022 147.558C91.0882 148.073 86.548 150.698 85.1151 151.374C84.9219 151.245 85.0346 151.052 85.1151 150.859C87.3852 148.073 92.3762 144.692 95.4352 142.551C95.7943 142.181 96.0931 141.758 96.3207 141.295C98.4393 143.266 100.699 145.08 103.083 146.721C102.348 147.202 101.649 147.735 100.99 148.315ZM138.454 162.95C138.1 162.724 137.843 162.515 137.794 162.225C136.909 155.656 141.835 118.433 141.755 116.968C141.755 116.882 141.738 116.797 141.704 116.718C141.671 116.639 141.622 116.567 141.561 116.507C141.499 116.447 141.426 116.4 141.346 116.369C141.266 116.337 141.181 116.322 141.095 116.324C140.274 116.324 141.723 116.324 121.211 135.966C119.859 137.238 109.523 147.123 107.8 147.784C105.433 147.606 96.53 140.506 95.081 138.269C97.8824 132.601 131.853 85.9757 143.606 78.8434C144.508 78.296 146.054 77.4427 147.744 76.5411C148.329 77.0924 148.959 77.5933 149.628 78.0384C153.363 81.5804 158.563 85.9918 162.508 89.3084L159.433 95.4103C159.386 95.4911 159.362 95.5827 159.362 95.6759C159.362 95.7692 159.386 95.8608 159.433 95.9416C184.404 131.764 184.034 131.362 184.195 131.362C185.795 139.639 186.791 148.023 187.173 156.445C187.173 158.715 187.173 158.522 187.27 158.361C187.366 158.2 187.27 158.474 187.27 158.474C183.373 162.724 144.814 166.685 138.454 162.95ZM227.455 109.611C220.162 110.625 211.919 109.111 210.325 109.047C209.439 104.755 207.674 100.693 205.141 97.1169C205.102 97.0648 205.045 97.0292 204.981 97.0172C204.917 97.0053 204.851 97.0179 204.797 97.0524C204.742 97.087 204.702 97.1411 204.685 97.2038C204.668 97.2665 204.676 97.3332 204.706 97.3906C205.64 99.2904 208.763 107.485 209.536 109.482C209.294 110.254 216.813 141.344 214.688 145.53C212.788 149.313 201.727 154.079 197.735 155.447C196.945 146.484 195.655 137.572 193.871 128.753C194.418 124.117 193.71 96.5534 193.5 86.3621C193.494 86.2437 193.455 86.1294 193.386 86.0326C193.318 85.9357 193.223 85.8601 193.114 85.8147L185.885 82.7718C185.852 78.9458 185.61 75.1244 185.161 71.3247C203.209 74.4481 224.235 84.7682 225.99 84.7843C228.534 84.7843 247.435 70.2943 251.348 69.7147C253.086 69.441 260.557 75.9615 261.426 77.7647C253.795 88.4229 240.384 102.43 234.169 107.276C232.167 108.615 229.856 109.418 227.455 109.611Z" fill="#97008B"/>
<path d="M162.331 48.4305C162.312 48.3235 162.272 48.2212 162.214 48.1298C162.155 48.0383 162.079 47.9593 161.99 47.8976C161.9 47.8358 161.8 47.7924 161.693 47.7699C161.587 47.7474 161.477 47.7462 161.371 47.7665C161.264 47.7868 161.162 47.8281 161.072 47.888C160.981 47.9479 160.903 48.0252 160.843 48.1155C160.782 48.2057 160.74 48.3071 160.719 48.4137C160.698 48.5203 160.699 48.63 160.721 48.7364C161.043 50.3464 161.107 50.7167 161.816 50.7167C161.949 50.7171 162.081 50.6842 162.199 50.6208C162.317 50.5575 162.418 50.4657 162.491 50.3538C162.565 50.2419 162.609 50.1134 162.62 49.98C162.632 49.8465 162.61 49.7124 162.556 49.5897C162.508 49.3321 162.363 48.5754 162.331 48.4305ZM167.257 59.0887C168.304 59.3946 169.302 58.8955 169.27 58.6379C169.238 58.3803 169.27 58.5091 167.853 57.9778C166.903 57.6236 165.857 56.3678 165.486 56.561C165.116 56.7542 165.68 57.7846 165.808 57.9778C166.153 58.5004 166.663 58.8917 167.257 59.0887ZM196.704 43.7937C194.595 52.6326 193.05 60.1352 192.792 61.6325C192.621 62.2839 192.588 62.964 192.695 63.6289C193.549 65.4482 204.577 69.0385 205.978 68.3301C207.379 67.6217 211.017 59.4268 215.251 50.9743C217.845 51.0572 220.441 50.8683 222.996 50.4108C225.685 49.9173 228.303 49.0898 230.788 47.9475C236.23 45.4359 242.187 34.6811 242.992 29.2715C243.595 23.3983 242.352 17.4831 239.434 12.3504C225.926 -11.0751 186.304 1.53118 189.524 27.5488C190.443 33.5021 192.92 39.1065 196.704 43.7937ZM206.525 62.9688C206.525 63.2264 206.235 63.1942 204.915 62.9688C202.215 62.6294 199.6 61.7943 197.203 60.5055C196.076 59.8937 195.77 59.7649 195.883 59.4912C195.996 59.2175 196.237 59.3141 197.976 59.7971C198.137 59.7971 203.128 61.4071 204.561 61.9062C206.413 62.7434 206.525 62.7434 206.525 62.9688ZM206.235 36.7741C207.955 36.8632 209.668 36.5084 211.21 35.7437C212.644 36.4382 214.195 36.8586 215.783 36.9834C213.078 42.0227 207.588 52.2945 205.817 57.7685L198.99 55.8848C200.6 51.9242 204.159 42.6506 206.203 36.7741H206.235ZM205.672 35.4378C204.47 35.2562 203.361 34.6854 202.515 33.813C201.668 32.9405 201.132 31.8146 200.987 30.6078C200.536 27.3878 202.597 23.7814 205.704 24.6347C207.652 25.166 207.894 26.7116 207.556 28.6597C207.266 30.0765 206.219 33.6346 205.64 35.3734L205.672 35.4378ZM210.051 31.5738C210.223 30.5203 210.618 29.5157 211.21 28.6275C211.492 28.1433 211.904 27.7478 212.399 27.486C212.894 27.2241 213.453 27.1064 214.012 27.1463C215.203 27.5005 215.718 29.7545 214.736 31.1713C213.792 32.4238 212.617 33.4841 211.275 34.2947C210.813 34.0235 210.445 33.6175 210.22 33.1311C209.996 32.6447 209.926 32.1013 210.019 31.5738H210.051ZM195.255 11.1107C202.468 2.43278 216.04 -1.01262 225.845 2.56158C231.172 4.38996 235.652 8.09203 238.452 12.9783C241.227 17.8623 242.415 23.4891 241.849 29.0783C241.108 34.0854 235.409 44.486 230.402 46.7883C225.824 48.8765 220.829 49.8898 215.799 49.7507C215.251 49.7507 214.672 49.7507 214.463 50.1371C213.513 52.0691 211.774 55.8043 210.067 59.3141C208.889 58.745 207.667 58.2713 206.413 57.8973C208.28 52.5521 214.173 42.0549 216.974 36.9673C219.401 37.1752 221.841 36.7538 224.058 35.7437C224.657 35.4284 225.154 34.9488 225.49 34.3612C225.826 33.7736 225.987 33.1024 225.955 32.4263C225.923 31.7502 225.698 31.0973 225.308 30.5442C224.918 29.9911 224.378 29.5608 223.752 29.3037C221.257 28.0801 219.019 31.0103 217.715 33.4736C217.361 34.1176 216.958 34.8743 216.507 35.7276C215.205 35.642 213.921 35.3765 212.692 34.9387C213.916 34.0782 215.002 33.0358 215.912 31.8475C216.421 31.0777 216.68 30.1687 216.651 29.2459C216.622 28.323 216.307 27.4319 215.751 26.6955C215.313 26.1875 214.706 25.8566 214.042 25.7647C213.378 25.6728 212.703 25.8263 212.144 26.1964C211.017 26.8892 210.113 27.8927 209.542 29.0865C208.971 30.2803 208.756 31.6135 208.924 32.9262C209.099 33.6671 209.498 34.3361 210.067 34.8421C209.011 35.2795 207.878 35.4985 206.735 35.4861C207.379 33.5863 208.425 30.157 208.699 28.7563C208.87 27.9577 208.908 27.1362 208.811 26.3252C208.687 25.6289 208.364 24.9835 207.881 24.4665C207.398 23.9496 206.777 23.583 206.091 23.4111C202.178 22.3002 199.296 26.6311 199.86 30.6722C200.019 32.1204 200.641 33.4787 201.632 34.5459C202.624 35.6131 203.933 36.3323 205.366 36.597C203.305 42.393 200.085 51.7471 198.475 55.7399L194.933 54.8222C197.203 43.4234 197.477 43.6971 197.155 43.5522C193.497 38.888 191.156 33.3283 190.377 27.4522C189.997 24.5385 190.236 21.5776 191.076 18.762C191.917 15.9465 193.341 13.3395 195.255 11.1107ZM217.602 35.8242C218.729 33.7795 220.983 29.3037 223.173 30.3985C223.611 30.5749 223.992 30.8676 224.276 31.245C224.559 31.6224 224.735 32.0701 224.783 32.5398C224.75 35.3734 220.339 35.8725 217.538 35.8242H217.602ZM279.233 42.9243C281.173 41.7832 283.465 41.3937 285.673 41.8295C288.099 41.8729 290.416 42.8428 292.149 44.5402C293.882 46.2376 294.901 48.5339 294.995 50.9582C293.536 50.1118 291.831 49.7934 290.165 50.0566C286.124 50.4108 280.843 52.6004 281.551 56.4966C282.131 59.7166 286.381 59.2819 289.601 58.4125C292.821 57.5431 295.381 55.9653 296.041 52.858C299.954 55.7077 300.871 60.6987 301.032 65.577C301.032 65.6453 301.059 65.7108 301.108 65.7591C301.156 65.8074 301.222 65.8346 301.29 65.8346C301.358 65.8346 301.424 65.8074 301.472 65.7591C301.52 65.7108 301.547 65.6453 301.547 65.577C301.66 60.1191 300.678 54.7739 296.218 51.6666C296.264 50.2687 296.026 48.8761 295.518 47.5731C295.01 46.27 294.243 45.0836 293.263 44.0856C292.283 43.0877 291.111 42.299 289.817 41.7673C288.524 41.2356 287.136 40.9719 285.737 40.9923C283.502 40.6659 281.224 41.133 279.297 42.3125C278.702 42.6023 278.975 43.037 279.233 42.9243ZM293.916 54.468C292.097 56.8508 286.945 58.0905 284.562 57.688C283.676 57.5431 282.952 57.1728 282.759 56.2551C282.179 53.0351 287.734 51.2802 291.05 51.1675C292.401 51.064 293.748 51.4092 294.882 52.1496C294.76 52.9913 294.428 53.7887 293.916 54.468ZM271.859 24.1034C273.582 21.9782 272.423 18.2752 267.609 18.2591C265.741 18.2591 264.839 20.1589 264.968 21.9782C265.258 26.3091 270.136 26.1803 271.859 24.1034ZM266.095 21.8977C266.095 20.8351 266.594 19.4505 267.705 19.4666C270.297 19.4666 271.489 20.6741 271.489 22.0104C271.424 25.0533 265.886 26.6311 266.095 21.8977ZM265.435 204.423C251.283 198.772 244.714 226.126 233.155 249.632C233.082 250.62 233.114 251.613 233.251 252.595C233.251 255.058 233.525 271.367 234.958 273.219C235.344 273.959 236.97 273.219 237.727 272.752C244.154 268.773 250.21 264.225 255.823 259.163C255.871 259.109 255.907 259.045 255.93 258.975C255.952 258.906 255.959 258.833 255.952 258.761C258.947 254.494 270.169 232.276 272.889 221.135C274.789 213.246 272.906 207.37 265.435 204.423ZM270.491 224.87C262.914 223.9 255.589 221.507 248.9 217.819C252.668 210.686 257.321 202.556 265 205.615C273.55 209.012 273.372 216.048 270.491 224.822V224.87ZM243.7 266.73C243.206 266.316 242.666 265.959 242.09 265.668C239.915 264.562 237.401 264.32 235.054 264.992C234.893 263.076 233.976 250.614 233.976 250.502C246.035 254.913 242.316 252.997 254.262 258.938C253.006 260.129 248.289 263.43 243.7 266.698V266.73ZM252.008 220.137C253.578 220.995 255.19 221.774 256.838 222.471C253.147 228.268 249.887 234.327 247.081 240.6C244.376 246.251 244.473 246.219 241.72 252.385C240.11 251.87 238.5 251.387 236.89 250.904C238.629 247.443 250.993 222.133 252.008 220.105V220.137ZM242.348 252.546C247.58 243.16 252.909 231.487 257.482 222.681C259.092 223.357 260.702 223.904 262.312 224.387C261.458 225.997 258.963 230.28 258.303 231.52C257.643 232.759 251.026 245.8 250.559 246.799C249.818 248.409 247.79 252.9 247.162 254.333C245.519 253.609 243.942 253.061 242.283 252.514L242.348 252.546ZM247.741 254.543C248.723 252.756 252.764 245.253 253.264 244.287C254.02 242.79 262.457 225.547 262.924 224.548C264.405 224.967 265.966 225.321 266.965 225.514C264.018 233.564 255.534 249.069 252.475 256.716C249.689 255.412 249.061 255.09 247.677 254.51L247.741 254.543ZM248.723 218.285L251.605 219.895C245.798 229.786 240.739 240.097 236.471 250.743L234.056 250.002C243.41 230.071 243.845 227.462 248.659 218.253L248.723 218.285ZM255.357 258.117L252.925 256.958C255.55 251.806 263.761 238.588 267.512 225.627C268.414 225.788 269.299 225.933 270.152 226.046C266.015 237.085 261.047 247.796 255.292 258.085L255.357 258.117ZM204.915 268.566C205.557 268.034 206.016 267.315 206.227 266.509C206.437 265.703 206.39 264.851 206.091 264.074C205.954 262.952 205.44 261.91 204.632 261.12C203.824 260.329 202.772 259.837 201.647 259.725C200.523 259.612 199.393 259.886 198.445 260.501C197.497 261.116 196.787 262.035 196.431 263.108C194.37 261.772 192.132 260.355 189.991 259.002C191.601 256.861 196.334 257.811 196.817 259.566C196.829 259.633 196.867 259.692 196.923 259.731C196.978 259.771 197.047 259.787 197.114 259.776C197.181 259.766 197.241 259.73 197.282 259.675C197.323 259.621 197.341 259.553 197.332 259.485C197.091 256.684 191.262 255.042 188.912 258.342C186.835 257.07 184.259 255.525 182.102 254.349C183.953 252.739 188.091 253.641 188.542 255.315C188.563 255.373 188.604 255.421 188.657 255.451C188.71 255.481 188.772 255.491 188.832 255.479C188.892 255.467 188.946 255.435 188.984 255.387C189.022 255.34 189.042 255.28 189.041 255.219C188.831 252.611 183.438 250.856 180.991 253.722C179.965 253.147 178.887 252.673 177.771 252.305C177.567 252.22 177.343 252.196 177.125 252.236C176.908 252.276 176.707 252.378 176.547 252.53C172.474 257.602 158.74 270.771 152.397 272.301C152.238 272.325 152.087 272.391 151.961 272.491C151.835 272.592 151.738 272.724 151.679 272.874C151.62 273.024 151.602 273.187 151.626 273.347C151.651 273.506 151.717 273.656 151.817 273.782C153.21 275.196 154.806 276.395 156.551 277.34C154.941 278.95 153.685 280.399 152.751 281.446C152.268 281.961 152.011 291.814 152.429 293.988C152.492 294.2 152.629 294.383 152.816 294.503C154.844 295.887 180.975 307.19 183.647 305.676C185.434 304.662 206.767 282.46 207.105 281.784C207.62 280.721 207.443 273.637 207.411 270.804C207.282 269.95 205.688 269.033 204.915 268.566ZM153.395 289.834V286.244C160.077 289.464 175.372 296.032 181.168 297.868C182.649 298.351 182.778 298.286 183.551 297.868C187.978 295.034 203.611 277.421 206.477 274.732V278.129C197.783 286.839 183.019 302.102 182.746 301.233C181.152 301.136 154.78 290.478 153.395 289.834ZM204.513 263.14C205.092 264.115 205.403 265.226 205.414 266.36C205.409 266.721 205.32 267.076 205.155 267.397C204.991 267.718 204.754 267.997 204.464 268.212C203.112 267.31 200.552 265.636 197.525 263.671C199.184 260.403 202.871 260.355 204.448 263.14H204.513ZM152.993 273.444C159.851 271.415 172.876 258.857 177.255 253.416C178.309 253.709 179.325 254.125 180.282 254.655C178.672 257.65 180.395 260.934 181.007 260.467C181.345 260.21 180.733 260.113 180.636 258.535C180.595 257.383 180.856 256.24 181.393 255.219C183.615 256.378 186.223 257.891 188.429 259.163C187.076 262.174 188.703 265.153 189.266 264.718C189.83 264.283 189.008 264.38 188.912 262.802C188.873 261.767 189.071 260.737 189.491 259.791C191.762 261.128 194.08 262.512 196.205 263.816C195.878 264.618 195.748 265.488 195.826 266.351C195.905 267.214 196.189 268.045 196.656 268.775C196.677 268.803 196.703 268.826 196.733 268.843C196.764 268.86 196.797 268.871 196.831 268.876C196.865 268.88 196.9 268.878 196.934 268.869C196.967 268.86 196.999 268.845 197.026 268.823C197.054 268.802 197.077 268.776 197.094 268.746C197.111 268.716 197.123 268.683 197.127 268.648C197.132 268.614 197.129 268.579 197.12 268.545C197.111 268.512 197.096 268.481 197.075 268.453C196.785 267.813 196.642 267.117 196.656 266.415C196.67 265.713 196.841 265.024 197.155 264.396C200.906 266.682 203.933 268.598 204.867 269.226C204.69 269.387 187.898 284.328 182.182 288.771C178.431 287.789 158.74 278.016 152.993 273.444ZM153.605 282.412C160.898 285.632 177.465 293.102 181.28 293.827C181.941 293.955 182.198 294.004 183.454 293.006C188.815 288.707 206.252 270.466 206.413 270.659C206.42 270.707 206.42 270.756 206.413 270.804V274.024C202.822 276.906 182.858 297.868 182.536 296.87C180.926 296.87 154.764 286.195 153.427 285.6C153.395 284.923 153.54 283.12 153.605 282.412ZM182.923 304.598C181.313 305.515 156.792 295.549 153.508 293.521C153.385 292.495 153.325 291.463 153.331 290.43C160.383 293.907 180.894 302.569 182.778 302.488C185.531 302.344 204.996 280.431 206.38 278.902C206.396 279.724 206.315 280.546 206.139 281.349C205.865 281.88 183.985 304.002 182.923 304.598ZM49.5341 213.842C49.6468 215.565 49.7273 217.062 49.7273 218.463C49.7273 218.676 49.8122 218.881 49.9631 219.032C50.1141 219.183 50.3188 219.268 50.5323 219.268C50.7458 219.268 50.9506 219.183 51.1016 219.032C51.2525 218.881 51.3373 218.676 51.3373 218.463C51.3373 216.965 51.2568 215.484 51.1441 213.729C51.1292 213.516 51.0301 213.317 50.8685 213.176C50.707 213.036 50.4963 212.966 50.2828 212.981C50.0693 212.995 49.8705 213.095 49.7301 213.256C49.5897 213.418 49.5192 213.628 49.5341 213.842ZM294.85 181.561C294.745 181.567 294.642 181.595 294.547 181.641C294.453 181.687 294.369 181.752 294.3 181.832C294.231 181.911 294.178 182.004 294.145 182.104C294.113 182.204 294.1 182.31 294.109 182.415C294.206 183.896 294.302 185.49 294.302 187.035C294.302 187.249 294.387 187.454 294.538 187.605C294.689 187.756 294.894 187.84 295.107 187.84C295.321 187.84 295.526 187.756 295.677 187.605C295.828 187.454 295.912 187.249 295.912 187.035C295.912 185.425 295.816 183.815 295.703 182.302C295.697 182.197 295.67 182.094 295.624 181.999C295.577 181.905 295.512 181.821 295.433 181.752C295.353 181.683 295.261 181.63 295.161 181.598C295.06 181.565 294.955 181.553 294.85 181.561ZM45.3642 209.833C45.5777 209.833 45.7825 209.748 45.9335 209.597C46.0844 209.446 46.1692 209.241 46.1692 209.028C46.1692 208.814 46.0844 208.61 45.9335 208.459C45.7825 208.308 45.5777 208.223 45.3642 208.223C43.4161 208.223 41.79 208.368 40.18 208.336C39.965 208.336 39.7586 208.42 39.6051 208.57C39.4515 208.721 39.3632 208.926 39.3589 209.141C39.3589 209.354 39.4438 209.559 39.5947 209.71C39.7457 209.861 39.9504 209.946 40.1639 209.946C41.8222 209.978 43.6415 209.913 45.3642 209.833ZM289.859 176.796C287.927 176.796 286.301 176.908 284.675 176.925C284.461 176.925 284.256 177.009 284.105 177.16C283.954 177.311 283.87 177.516 283.87 177.73C283.87 177.943 283.954 178.148 284.105 178.299C284.256 178.45 284.461 178.535 284.675 178.535C286.413 178.535 288.217 178.535 289.955 178.406C290.166 178.389 290.361 178.29 290.5 178.131C290.638 177.971 290.709 177.764 290.696 177.553C290.684 177.343 290.589 177.145 290.432 177.004C290.276 176.862 290.07 176.787 289.859 176.796ZM49.0994 199.883C49.196 201.364 49.2926 202.958 49.2926 204.504C49.2968 204.716 49.3829 204.918 49.533 205.069C49.6831 205.219 49.8854 205.305 50.0976 205.309C50.3111 205.309 50.5159 205.224 50.6669 205.073C50.8178 204.922 50.9026 204.717 50.9026 204.504C50.9026 202.894 50.806 201.284 50.7094 199.77C50.6945 199.557 50.5954 199.358 50.4338 199.218C50.2723 199.077 50.0616 199.007 49.8481 199.022C49.6346 199.037 49.4358 199.136 49.2954 199.297C49.155 199.459 49.0845 199.67 49.0994 199.883ZM295.478 173.077C295.478 171.467 295.381 169.857 295.268 168.343C295.253 168.13 295.154 167.931 294.993 167.791C294.831 167.65 294.621 167.58 294.407 167.595C294.194 167.61 293.995 167.709 293.854 167.87C293.714 168.032 293.643 168.242 293.658 168.456C293.755 169.937 293.852 171.531 293.852 173.077C293.852 173.29 293.936 173.495 294.087 173.646C294.238 173.797 294.443 173.882 294.657 173.882C294.872 173.882 295.078 173.797 295.232 173.647C295.385 173.496 295.474 173.292 295.478 173.077ZM60.9812 209.624C61.087 209.62 61.1909 209.595 61.287 209.55C61.3831 209.506 61.4695 209.443 61.5412 209.365C61.613 209.288 61.6688 209.196 61.7053 209.097C61.7418 208.998 61.7584 208.892 61.7541 208.786C61.7378 208.576 61.6425 208.379 61.4872 208.236C61.3319 208.092 61.1282 208.013 60.9169 208.014C58.9688 208.094 57.3427 208.159 55.7165 208.126C55.5031 208.126 55.2983 208.211 55.1473 208.362C54.9964 208.513 54.9116 208.718 54.9116 208.931C54.9116 209.145 54.9964 209.35 55.1473 209.501C55.2983 209.652 55.5031 209.736 55.7165 209.736C57.4393 209.769 59.2424 209.704 60.9812 209.624ZM305.476 176.586C303.866 176.667 302.079 176.715 300.292 176.715C300.185 176.711 300.079 176.728 299.98 176.766C299.88 176.804 299.79 176.861 299.713 176.935C299.636 177.008 299.575 177.097 299.534 177.195C299.492 177.293 299.47 177.398 299.471 177.504C299.47 177.719 299.555 177.926 299.705 178.079C299.856 178.233 300.061 178.321 300.276 178.325C302.111 178.325 303.592 178.325 305.54 178.196C305.646 178.192 305.75 178.167 305.846 178.123C305.942 178.079 306.028 178.016 306.1 177.938C306.172 177.86 306.228 177.769 306.264 177.67C306.301 177.571 306.317 177.465 306.313 177.359C306.293 177.15 306.197 176.955 306.042 176.813C305.888 176.67 305.686 176.59 305.476 176.586ZM23.9834 161.919C24.1927 162.08 69.5947 155.351 71.5428 154.159C71.6507 154.08 71.7369 153.976 71.7932 153.855C71.8495 153.733 71.8742 153.6 71.8648 153.467C71.8648 151.39 69.1439 131.893 67.8398 127.031C67.6788 126.435 67.5178 125.839 67.1475 125.63C64.6842 124.149 21.2786 132.328 18.6865 134.002C18.6163 134.043 18.5556 134.099 18.5084 134.166C18.4613 134.233 18.4287 134.308 18.4128 134.388C17.8654 136.336 22.5827 160.953 23.9834 161.919ZM19.3949 134.775C22.4861 133.374 61.8828 126.161 66.3908 126.725C67.4856 129.542 70.4158 150.182 70.609 153.209C68.3711 153.869 24.5952 161.388 24.4342 161.42C24.2732 161.452 24.2571 161.646 23.919 160.631C22.5022 156.381 19.3144 138.413 19.3949 134.775Z" fill="#97008B"/>
<path d="M75.0849 155.592C75.1725 155.429 75.2116 155.245 75.1976 155.061C75.1976 152.501 71.5268 124.084 70.2227 121.814C70.1204 121.647 69.9757 121.51 69.8032 121.416C69.6307 121.323 69.4366 121.277 69.2406 121.283C63.847 120.623 18.3484 129.51 15.3538 131.587C14.9352 131.877 14.9996 132.601 15.0479 133.374C15.3055 137.608 19.8779 165.461 21.4879 165.3C21.665 165.3 21.6006 165.172 21.182 166.025C18.6704 171.193 13.9048 187.744 14.0014 191.076C14.0014 192.477 14.3234 194.296 15.708 194.2C25.6417 192.976 74.3442 185.248 88.3512 182.366C88.8987 182.254 89.2529 181.755 89.2368 180.933C89.0715 179.566 88.6568 178.24 88.0132 177.021C86.049 173.334 77.9024 158.732 75.0849 155.592ZM21.5845 164.801C20.3287 163.191 15.708 135.451 16.0622 132.376C19.6042 130.54 64.4911 121.863 69.1923 122.571C70.4803 126.113 73.813 151.696 74.0223 154.771C68.3229 156.735 28.8617 163.111 21.5845 164.801ZM22.2929 165.284C23.6453 164.946 69.7075 157.234 73.9257 156.123C76.228 158.265 86.6286 176.764 87.3048 178.341C78.0634 179.951 23.2428 189.112 15.1767 190.336C15.2894 185.458 20.2965 168.408 22.2929 165.284Z" fill="#97008B"/>
<path d="M28.3465 181.98C29.7472 181.771 59.4678 178.196 70.2066 175.282C70.2727 175.265 70.3294 175.223 70.3641 175.164C70.3989 175.105 70.4088 175.035 70.3917 174.968C70.3746 174.902 70.3319 174.846 70.2731 174.811C70.2142 174.776 70.1439 174.766 70.0777 174.783C67.9686 175.218 42.2408 178.647 28.3143 181.481C28.2759 181.474 28.2363 181.476 28.1987 181.487C28.1611 181.497 28.1264 181.516 28.0972 181.542C28.0681 181.568 28.0452 181.601 28.0304 181.637C28.0156 181.673 28.0092 181.712 28.0117 181.751C28.0142 181.79 28.0256 181.828 28.0449 181.862C28.0642 181.896 28.0911 181.925 28.1233 181.947C28.1556 181.969 28.1925 181.984 28.2311 181.989C28.2698 181.995 28.3093 181.992 28.3465 181.98ZM50.0654 69.9562C49.464 71.3145 48.9583 72.7133 48.552 74.1422C48.5281 74.3715 48.5913 74.6014 48.7291 74.7862C50.3552 77.2334 67.0187 96.0221 71.3657 98.6625C71.9614 99.0328 72.6698 99.2904 73.1045 98.7591C76.2624 94.8298 80.3834 91.7847 85.0669 89.9202C88.8787 88.5715 92.8752 87.8167 96.9164 87.6823C100.136 87.3925 100.7 87.0705 101.94 84.9614C103.402 82.1857 105.342 79.6896 107.671 77.5876C110.641 74.991 113.937 72.7935 117.476 71.051C117.635 70.9607 117.76 70.8198 117.83 70.6506C117.9 70.4814 117.911 70.2936 117.863 70.1172C117.318 68.7322 116.599 67.4228 115.721 66.221C116.301 66.0278 116.945 65.8507 116.945 65.2711C116.945 63.6611 102.906 43.3429 99.0094 39.5111C98.607 39.1086 98.0273 38.5773 97.496 38.6095C89.446 39.0603 81.6053 46.6595 77.0651 53.2927C71.8648 53.0995 68.4999 52.6326 62.5751 55.1281C58.3925 56.9035 54.6215 59.5235 51.4983 62.8239C51.0153 63.323 47.7309 66.8006 47.6826 67.0743C47.6343 67.348 47.7309 67.348 50.0654 69.9562ZM114.465 69.5054C107.752 70.6485 103.469 76.2352 100.314 82.3049C98.9128 85.0097 99.0416 85.1385 97.5604 85.1063C94.9703 84.9596 92.3722 85.0566 89.8002 85.3961C87.9138 85.678 86.059 86.1417 84.2619 86.7807C80.1724 88.2297 75.4874 92.8665 72.9918 96.3119C72.9388 96.3827 72.8714 96.4416 72.7941 96.4846C72.7167 96.5276 72.6312 96.5537 72.543 96.5613C72.4548 96.5689 72.366 96.5578 72.2825 96.5287C72.1989 96.4996 72.1224 96.4531 72.058 96.3924C66.8255 90.9989 57.568 81.5321 52.9151 76.0903C52.6897 75.8488 53.0761 75.4946 53.3015 75.7522C56.3122 78.9722 64.0885 86.6841 72.4283 95.0722C75.2458 91.4819 79.5928 87.1349 83.8915 85.6215C86.2357 84.7853 88.6748 84.2445 91.1526 84.0115C93.4731 83.8353 95.8035 83.8353 98.1239 84.0115C99.0738 82.9167 103.775 70.4875 114.433 69.1029C114.464 69.1258 114.49 69.1554 114.508 69.1896C114.526 69.2238 114.537 69.2616 114.538 69.3003C114.54 69.3389 114.533 69.3774 114.517 69.413C114.502 69.4485 114.479 69.4801 114.449 69.5054H114.465ZM97.4799 39.9136C100.7 42.1676 113.805 61.5681 115.512 64.9652C112.551 65.9035 109.692 67.1387 106.979 68.6521C104.41 69.9399 102.161 71.7846 100.395 74.0517C98.629 76.3189 97.3912 78.9514 96.7715 81.7575C90.9916 72.3551 82.9255 62.0028 77.5643 54.3875C77.8862 54.1782 86.9344 40.5415 97.4799 39.9136ZM62.9293 56.0136C68.8058 53.6469 72.058 54.1943 76.9202 54.4036C81.7502 62.6468 90.4281 74.271 96.1436 81.8863C90.8684 80.638 85.3173 81.4015 80.5749 84.0276C77.7252 85.6376 74.2476 89.5016 72.1063 91.9005C69.0151 89.4211 51.1763 70.4231 48.3105 67.2031C52.7219 62.2121 56.7952 58.4608 62.9293 55.9492V56.0136ZM33.4663 96.9559C33.0684 96.6766 32.598 96.5188 32.1122 96.5017C31.6263 96.4846 31.146 96.6088 30.7293 96.8593C30.4259 96.9946 30.1522 97.1883 29.9236 97.4295C29.6951 97.6706 29.5163 97.9543 29.3975 98.2646C29.2786 98.5748 29.222 98.9054 29.2309 99.2375C29.2399 99.5695 29.3141 99.8966 29.4494 100.2C29.5847 100.503 29.7785 100.777 30.0196 101.006C30.2607 101.234 30.5445 101.413 30.8547 101.532C31.1649 101.651 31.4955 101.707 31.8276 101.698C32.1597 101.69 32.4867 101.615 32.7901 101.48C33.2748 101.374 33.7159 101.123 34.0547 100.761C34.3936 100.399 34.6144 99.9417 34.6877 99.451C34.7611 98.9603 34.6835 98.4589 34.4654 98.0133C34.2473 97.5677 33.8989 97.1989 33.4663 96.9559ZM32.4037 100.176C31.2767 100.53 30.6005 100.176 30.3268 99.6285C29.8116 98.4854 30.4556 96.7305 32.13 97.2457C33.3053 97.6804 34.2552 99.6607 32.4037 100.256V100.176ZM115.335 23.2823C115.802 24.2322 117.975 23.878 118.925 23.5721C119.424 23.4111 119.746 23.234 119.795 22.751C119.939 21.5435 120.1 11.0785 119.553 10.0642C119.496 9.95782 119.41 9.87053 119.304 9.81325C119.198 9.75597 119.077 9.73125 118.957 9.74218C117.24 9.73742 115.531 9.98699 113.886 10.4828C113.226 10.8853 114.755 22.2197 115.335 23.2823ZM114.224 10.8692C115.711 10.6564 117.215 10.5863 118.716 10.6599C118.812 11.8513 118.555 22.1714 118.539 22.3324C117.859 22.5761 117.132 22.6642 116.414 22.59C116.301 22.2197 116.108 21.2215 115.866 19.9657C115.157 16.965 114.609 13.9285 114.224 10.8692ZM31.9046 83.3675C32.0591 83.4466 32.2302 83.4879 32.4037 83.4879C32.5773 83.4879 32.7484 83.4466 32.9028 83.3675C33.5249 82.9838 34.0182 82.4232 34.3196 81.7575C34.3606 81.6509 34.3732 81.5356 34.3563 81.4227C34.3394 81.3099 34.2935 81.2033 34.223 81.1135C33.4502 80.1958 25.0138 70.4231 23.9834 71.0349C22.7183 71.8539 21.518 72.7689 20.3931 73.7719C20.3478 73.8124 20.3115 73.862 20.2865 73.9175C20.2616 73.973 20.2485 74.0331 20.2482 74.0939C20.216 74.9311 29.5862 82.4337 31.9046 83.3675ZM24.1766 71.4535C25.3519 72.3068 29.3125 77.2012 32.9833 81.5321C32.8254 81.7807 32.6299 82.0034 32.4037 82.1922C28.5444 79.7221 24.8595 76.9893 21.3752 74.0134C22.2487 73.0963 23.1847 72.2409 24.1766 71.4535ZM49.4697 35.9369C49.8239 29.6901 53.4625 26.7921 57.2621 26.0515C56.1834 30.0121 56.3605 35.1641 60.2728 35.8242C62.1404 36.1301 63.0581 35.1641 64.4105 34.0371C70.1904 29.2071 65.5214 24.3771 59.0009 24.7152C61.432 18.0498 67.0509 12.6241 74.5052 12.447C74.5736 12.447 74.6391 12.4198 74.6874 12.3715C74.7357 12.3232 74.7628 12.2577 74.7628 12.1894C74.7628 12.1211 74.7357 12.0555 74.6874 12.0072C74.6391 11.9589 74.5736 11.9318 74.5052 11.9318C66.4552 11.7708 60.1279 17.5668 57.6324 24.8118C53.3337 25.5524 49.0672 28.7724 48.9545 35.8403C48.9462 35.8749 48.945 35.9108 48.951 35.9459C48.957 35.981 48.97 36.0145 48.9894 36.0443C49.0087 36.0742 49.0339 36.0998 49.0635 36.1197C49.0931 36.1395 49.1263 36.1531 49.1613 36.1597C49.1963 36.1662 49.2322 36.1656 49.267 36.1578C49.3017 36.1501 49.3345 36.1353 49.3633 36.1145C49.3922 36.0936 49.4165 36.0671 49.4348 36.0366C49.4531 36.0061 49.465 35.9721 49.4697 35.9369ZM58.6306 25.8583C61.0295 25.6973 64.6037 26.4379 65.5858 28.6114C66.1493 29.8511 65.5858 31.3806 63.5894 33.055C63.0474 33.598 62.4291 34.059 61.7541 34.4235C59.3391 35.4539 56.6664 32.4754 58.6306 25.8583ZM63.2352 253.561C61.6798 253.144 60.0567 253.043 58.4614 253.263C56.8662 253.483 55.3311 254.019 53.9465 254.841C52.5618 255.664 51.3556 256.754 50.3988 258.05C49.4419 259.345 48.7538 260.818 48.3749 262.383C47.6597 265.635 48.2655 269.038 50.059 271.842C51.8525 274.647 54.6868 276.625 57.9383 277.34C61.1899 278.055 64.5925 277.45 67.3974 275.656C70.2024 273.863 72.18 271.028 72.8952 267.777C73.2008 266.209 73.1928 264.595 72.8719 263.03C72.551 261.465 71.9235 259.979 71.0255 258.657C70.1275 257.336 68.9769 256.205 67.6398 255.33C66.3028 254.455 64.8058 253.854 63.2352 253.561ZM68.2101 266.682C67.5642 269.258 66.0177 271.519 63.8503 273.054C61.6829 274.59 59.0376 275.299 56.3927 275.054C53.9649 274.105 51.9493 272.331 50.7007 270.043C49.4521 267.755 49.0504 265.099 49.5663 262.544C50.1688 259.905 51.7009 257.571 53.8826 255.969C56.0643 254.367 58.7498 253.603 61.4481 253.818C63.9 254.831 65.9159 256.677 67.1411 259.03C68.3662 261.383 68.722 264.093 68.1457 266.682H68.2101Z" fill="#97008B"/>
<path d="M84.6804 258.149C83.2788 257.665 81.7767 257.549 80.3173 257.811C79.7125 256.424 78.968 255.103 78.0955 253.867C79.142 252.917 82.0078 250.276 81.3155 249.036C78.8517 246.089 75.9265 243.561 72.6537 241.55C71.2871 240.784 69.7823 240.297 68.2262 240.117C67.1958 240.262 64.7486 244.271 64.2012 245.172C63.847 245.172 62.5912 244.77 62.4946 244.722C62.4946 243.562 62.1565 239.376 61.11 238.893C59.9398 238.463 58.7246 238.166 57.4875 238.008C56.3444 237.831 46.0565 239.715 45.2998 241.099C44.8007 242.033 45.9599 245.559 46.298 246.541C45.4297 247.019 44.5959 247.557 43.8025 248.151C42.1925 249.294 42.6272 249.246 42.3374 249.117C41.9872 248.95 41.6119 248.841 41.2265 248.795C39.9404 248.041 38.4325 247.756 36.96 247.99C35.4788 248.473 31.9851 256.426 31.4216 258.471C31.2372 258.987 31.1874 259.541 31.2767 260.081C31.6631 261.144 34.2391 261.997 35.3178 262.335C35.02 264.407 35.02 266.51 35.3178 268.582C33.901 268.968 30.9547 269.838 31.1157 271.287C31.2767 272.736 35.0441 282.299 36.6058 283.056C37.4614 283.534 38.4074 283.829 39.3833 283.92C40.3592 284.012 41.3435 283.898 42.273 283.587C42.7966 283.326 43.3021 283.03 43.7864 282.702C44.4304 283.185 45.1066 283.619 45.7989 284.038C45.2998 285.278 44.1889 288.047 44.5431 289.303C44.7202 289.963 45.2515 290.172 45.9921 290.446C48.0368 291.186 59.0492 293.827 60.7236 293.537C61.3515 293.44 61.6896 292.78 61.8828 292.152C62.2406 290.723 62.451 289.261 62.5107 287.789C63.3376 287.708 64.1597 287.584 64.974 287.419C65.4713 288.294 66.1075 289.082 66.8577 289.753C67.6788 290.333 68.3711 290.043 69.3049 289.447C69.7557 290.027 70.4319 290.832 71.1564 290.913C72.9757 291.122 80.4944 284.038 81.2672 282.589C81.9112 281.381 79.5606 279.224 78.5141 278.274C79.6462 276.57 80.5349 274.717 81.1545 272.768C82.3158 272.943 83.4909 273.008 84.6643 272.961C85.1956 272.961 85.8074 272.768 86.0328 272.269C87.0149 270.031 86.7251 261.546 86.0328 259.389C85.9362 258.761 85.2117 258.342 84.6804 258.149ZM85.0668 259.63C85.6142 261.723 85.7913 269.628 84.9863 271.673C83.5943 271.81 82.1898 271.745 80.8164 271.48C80.6698 271.455 80.5191 271.486 80.394 271.566C80.2688 271.646 80.1783 271.771 80.1402 271.915C79.4991 274.091 78.5036 276.147 77.1939 278C77.1006 278.123 77.0586 278.277 77.0766 278.43C77.0946 278.584 77.1713 278.724 77.2905 278.822C78.4201 279.717 79.3799 280.807 80.1241 282.042C79.3191 283.362 73.024 289.125 71.2852 289.608C71.0276 289.608 70.3192 288.642 70.1421 288.385C69.5474 287.491 69.0097 286.561 68.5321 285.6C68.4624 285.459 68.3429 285.35 68.197 285.294C68.051 285.237 67.8892 285.237 67.7432 285.294C63.0742 287.049 61.3032 286.018 61.3032 287.177C61.3053 288.913 61.0225 290.637 60.466 292.281C56.6825 291.87 52.9565 291.038 49.357 289.802C49.5309 288.083 50.0107 286.409 50.7738 284.859C51.2568 283.78 49.3248 284.086 45.7184 280.415C45.6024 280.308 45.45 280.248 45.2918 280.248C45.1336 280.248 44.9812 280.308 44.8651 280.415C43.2551 281.736 41.1621 283.024 40.7435 282.814C39.9224 282.412 36.1389 273.83 35.9135 272.092C37.0587 271.294 38.3586 270.745 39.7292 270.482C39.8754 270.44 40.0016 270.347 40.0845 270.22C40.1674 270.093 40.2014 269.94 40.18 269.789C39.7855 267.509 39.7855 265.179 40.18 262.899C40.2046 262.758 40.1751 262.614 40.0975 262.494C40.0198 262.375 39.8997 262.289 39.7614 262.255C38.5477 261.937 37.3792 261.466 36.2838 260.854C35.9296 260.596 35.9618 260.612 35.994 260.339C37.0361 256.58 38.7073 253.026 40.9367 249.825C41.8061 249.584 44.1567 251.307 44.9617 251.918C45.0459 252 45.1585 252.046 45.2757 252.046C45.3929 252.046 45.5055 252 45.5896 251.918C46.3294 251.151 47.1259 250.441 47.9724 249.793C50.4196 247.942 51.0797 248.183 50.8704 247.539C50.1303 245.924 49.7146 244.179 49.6468 242.403C49.8964 242.196 50.1795 242.032 50.484 241.92C51.9871 241.326 53.5314 240.842 55.1047 240.471C57.0118 239.94 58.9718 239.621 60.949 239.521C61.2871 239.666 61.593 241.131 61.6735 241.582C62.2692 244.802 61.8667 245.462 62.3336 245.511C66.9221 245.961 67.8559 247.233 68.1779 246.67C69.0707 245.109 70.1113 243.637 71.2852 242.274C71.6233 241.936 71.6072 241.775 72.6215 242.355C75.6517 244.335 78.3656 246.761 80.6715 249.552C80.913 249.97 78.82 252.192 77.2905 253.496C76.7592 253.963 77.5159 254.172 78.9005 256.813C80.2851 259.453 79.9631 260.194 80.7037 260.033C82.1314 259.691 83.6007 259.555 85.0668 259.63ZM308.519 125.099C305.144 123.72 301.605 122.784 297.989 122.313C295.349 121.895 292.242 121.476 289.617 121.138C292.145 117.564 299.632 108.516 300.887 106.31C301.242 105.714 300.565 104.877 300.066 104.378C297.265 101.383 291.855 100.256 287.701 99.6124C285.319 99.226 275.369 98.0024 273.678 98.8074C271.65 99.7734 256.645 122.313 256.194 125.743C256.194 126.322 256.387 126.548 256.95 126.757C259.317 127.626 269.991 128.979 272.374 129.542C269.154 135.177 254.841 154.224 253.441 156.912C253.103 157.588 253.312 157.991 253.714 158.12C255.163 158.695 256.654 159.158 258.174 159.504C258.754 159.681 260.026 158.893 261.877 157.766C270.185 152.775 305.83 129.236 308.567 126.193C308.643 126.122 308.702 126.035 308.741 125.939C308.78 125.843 308.798 125.739 308.793 125.635C308.789 125.531 308.762 125.43 308.714 125.337C308.667 125.244 308.6 125.163 308.519 125.099ZM273.92 144.419C260.235 153.451 255.614 156.091 255.453 156.204C257.659 152.839 271.36 134.066 273.711 129.574C273.751 129.488 273.772 129.393 273.772 129.297C273.772 129.201 273.75 129.106 273.708 129.02C273.667 128.934 273.606 128.858 273.531 128.798C273.456 128.737 273.369 128.695 273.276 128.673C271.666 128.093 259.945 126.837 257.176 125.855C257.53 122.861 272.149 100.224 273.92 99.3226C275.691 98.421 292.87 100.466 296.09 102.768C294.399 106.068 285.061 117.628 283.548 120.317C283.242 120.864 283.145 121.396 283.741 121.541C284.337 121.685 299.471 123.456 302.771 124.535C298.746 127.9 278.428 141.392 273.92 144.354V144.419ZM170.638 45.9833C170.638 46.1282 170.735 46.3053 170.976 47.2391C171.04 47.4416 171.179 47.6118 171.365 47.7138C171.551 47.8159 171.77 47.8419 171.975 47.7865C172.18 47.7267 172.352 47.5879 172.455 47.4007C172.558 47.2135 172.582 46.9932 172.522 46.7883C172.361 46.1604 172.216 45.6291 172.12 45.3715C172.026 45.1947 171.869 45.0591 171.681 44.9913C171.493 44.9235 171.286 44.9283 171.101 45.0047C170.916 45.0811 170.766 45.2237 170.681 45.4046C170.595 45.5855 170.58 45.7918 170.638 45.9833Z" fill="#97008B"/>
</svg>
