<svg width="20" height="20" viewBox="0 0 20 20" fill="none" xmlns="http://www.w3.org/2000/svg">
<path d="M15.8333 3.33317H14.1667V2.49984C14.1667 2.27882 14.0789 2.06686 13.9226 1.91058C13.7663 1.7543 13.5544 1.6665 13.3333 1.6665C13.1123 1.6665 12.9004 1.7543 12.7441 1.91058C12.5878 2.06686 12.5 2.27882 12.5 2.49984V3.33317H7.5V2.49984C7.5 2.27882 7.41221 2.06686 7.25593 1.91058C7.09965 1.7543 6.88769 1.6665 6.66667 1.6665C6.44566 1.6665 6.2337 1.7543 6.07742 1.91058C5.92114 2.06686 5.83334 2.27882 5.83334 2.49984V3.33317H4.16667C3.50363 3.33317 2.86775 3.59656 2.3989 4.0654C1.93006 4.53424 1.66667 5.17013 1.66667 5.83317V15.8332C1.66667 16.4962 1.93006 17.1321 2.3989 17.6009C2.86775 18.0698 3.50363 18.3332 4.16667 18.3332H15.8333C16.4964 18.3332 17.1323 18.0698 17.6011 17.6009C18.0699 17.1321 18.3333 16.4962 18.3333 15.8332V5.83317C18.3333 5.17013 18.0699 4.53424 17.6011 4.0654C17.1323 3.59656 16.4964 3.33317 15.8333 3.33317ZM16.6667 15.8332C16.6667 16.0542 16.5789 16.2661 16.4226 16.4224C16.2663 16.5787 16.0544 16.6665 15.8333 16.6665H4.16667C3.94566 16.6665 3.7337 16.5787 3.57742 16.4224C3.42114 16.2661 3.33334 16.0542 3.33334 15.8332V9.99984H16.6667V15.8332ZM16.6667 8.33317H3.33334V5.83317C3.33334 5.61216 3.42114 5.4002 3.57742 5.24392C3.7337 5.08763 3.94566 4.99984 4.16667 4.99984H5.83334V5.83317C5.83334 6.05418 5.92114 6.26615 6.07742 6.42243C6.2337 6.57871 6.44566 6.6665 6.66667 6.6665C6.88769 6.6665 7.09965 6.57871 7.25593 6.42243C7.41221 6.26615 7.5 6.05418 7.5 5.83317V4.99984H12.5V5.83317C12.5 6.05418 12.5878 6.26615 12.7441 6.42243C12.9004 6.57871 13.1123 6.6665 13.3333 6.6665C13.5544 6.6665 13.7663 6.57871 13.9226 6.42243C14.0789 6.26615 14.1667 6.05418 14.1667 5.83317V4.99984H15.8333C16.0544 4.99984 16.2663 5.08763 16.4226 5.24392C16.5789 5.4002 16.6667 5.61216 16.6667 5.83317V8.33317Z" fill="#306B00"/>
</svg>
