<svg width="18" height="18" viewBox="0 0 18 18" fill="none" xmlns="http://www.w3.org/2000/svg">
<path d="M16.875 10.6875H14.625V8.4375H13.5V13.5H4.5V4.5H9.5625V3.375H7.3125V1.125H6.1875V3.375H4.5C4.20163 3.375 3.91548 3.49353 3.7045 3.7045C3.49353 3.91548 3.375 4.20163 3.375 4.5V6.1875H1.125V7.3125H3.375V10.6875H1.125V11.8125H3.375V13.5C3.375 13.7984 3.49353 14.0845 3.7045 14.2955C3.91548 14.5065 4.20163 14.625 4.5 14.625H6.1875V16.875H7.3125V14.625H10.6875V16.875H11.8125V14.625H13.5C13.7982 14.6246 14.0841 14.5059 14.295 14.295C14.5059 14.0841 14.6246 13.7982 14.625 13.5V11.8125H16.875V10.6875Z" fill="#97008B"/>
<path d="M11.8125 11.8125H6.1875V6.1875H11.8125V11.8125ZM7.3125 10.6875H10.6875V7.3125H7.3125V10.6875ZM17.4375 7.3125H16.3125C16.311 5.82111 15.7179 4.39124 14.6633 3.33667C13.6088 2.2821 12.1789 1.68899 10.6875 1.6875V0.5625C12.4771 0.564436 14.1929 1.27622 15.4583 2.54167C16.7238 3.80712 17.4356 5.52288 17.4375 7.3125Z" fill="#97008B"/>
<path d="M14.625 7.3125H13.5C13.4991 6.56685 13.2025 5.852 12.6753 5.32475C12.148 4.7975 11.4331 4.50089 10.6875 4.5V3.375C11.7313 3.37649 12.732 3.79181 13.4701 4.52991C14.2082 5.26801 14.6235 6.26867 14.625 7.3125Z" fill="#97008B"/>
</svg>
