<svg width="16" height="16" viewBox="0 0 16 16" fill="none" xmlns="http://www.w3.org/2000/svg">
<path d="M10 10.6667L7.33333 13.3333H12.6667C13.4 13.3333 14 12.7333 14 12C14 11.2667 13.4 10.6667 12.6667 10.6667H10ZM8.04 4.79334L2.19333 10.64C2.07333 10.76 2 10.9333 2 11.1067V12.6667C2 13.0333 2.3 13.3333 2.66667 13.3333H4.22667C4.40667 13.3333 4.57333 13.26 4.7 13.14L10.5467 7.29333L8.04 4.79334ZM12.4733 5.36C12.5351 5.29833 12.5842 5.22507 12.6176 5.14442C12.6511 5.06377 12.6683 4.97731 12.6683 4.89C12.6683 4.80269 12.6511 4.71623 12.6176 4.63559C12.5842 4.55494 12.5351 4.48168 12.4733 4.42L10.9133 2.86C10.8517 2.7982 10.7784 2.74917 10.6978 2.71571C10.6171 2.68226 10.5306 2.66504 10.4433 2.66504C10.356 2.66504 10.2696 2.68226 10.1889 2.71571C10.1083 2.74917 10.035 2.7982 9.97333 2.86L8.75333 4.08L11.2533 6.58L12.4733 5.36Z" fill="#326765"/>
</svg>
