<svg width="14" height="14" viewBox="0 0 14 14" fill="none" xmlns="http://www.w3.org/2000/svg">
<path d="M9.91669 3.5C10.3808 3.5 10.8259 3.68437 11.1541 4.01256C11.4823 4.34075 11.6667 4.78587 11.6667 5.25V5.83333H12.25C12.4047 5.83333 12.5531 5.89479 12.6625 6.00419C12.7719 6.11358 12.8334 6.26196 12.8334 6.41667V7.58333C12.8334 7.73804 12.7719 7.88642 12.6625 7.99581C12.5531 8.10521 12.4047 8.16667 12.25 8.16667H11.6667V8.75C11.6667 9.21413 11.4823 9.65925 11.1541 9.98744C10.8259 10.3156 10.3808 10.5 9.91669 10.5H2.91669C2.45256 10.5 2.00744 10.3156 1.67925 9.98744C1.35106 9.65925 1.16669 9.21413 1.16669 8.75V5.25C1.16669 4.78587 1.35106 4.34075 1.67925 4.01256C2.00744 3.68437 2.45256 3.5 2.91669 3.5H9.91669ZM9.91552 4.375H2.91669C2.69917 4.37501 2.48946 4.45604 2.32844 4.60228C2.16743 4.74852 2.06665 4.94949 2.04577 5.166L2.04169 5.25V8.75C2.04168 8.96742 2.12263 9.17706 2.26875 9.33806C2.41487 9.49907 2.6157 9.5999 2.8321 9.62092L2.91669 9.625H9.91552C10.1329 9.625 10.3426 9.54406 10.5036 9.39794C10.6646 9.25182 10.7654 9.05099 10.7864 8.83458L10.7905 8.75V5.25C10.7905 5.03258 10.7096 4.82294 10.5635 4.66194C10.4173 4.50093 10.2165 4.4001 10.0001 4.37908L9.91552 4.375ZM3.50002 5.25H8.75002C8.8929 5.25002 9.0308 5.30247 9.13757 5.39742C9.24434 5.49236 9.31255 5.62319 9.32927 5.76508L9.33335 5.83333V8.16667C9.33333 8.30954 9.28088 8.44745 9.18594 8.55422C9.09099 8.66099 8.96017 8.7292 8.81827 8.74592L8.75002 8.75H3.50002C3.35704 8.75012 3.219 8.69773 3.1121 8.60278C3.00521 8.50782 2.93692 8.37691 2.92019 8.23492L2.91669 8.16667V5.83333C2.91671 5.69046 2.96916 5.55255 3.0641 5.44578C3.15905 5.33901 3.28987 5.2708 3.43177 5.25408L3.50002 5.25Z" fill="#326765"/>
</svg>
