<svg width="14" height="14" viewBox="0 0 14 14" fill="none" xmlns="http://www.w3.org/2000/svg">
<path d="M3.0625 5.25C2.94647 5.25 2.83519 5.29609 2.75314 5.37814C2.67109 5.46019 2.625 5.57147 2.625 5.6875V8.3125C2.625 8.42853 2.67109 8.53981 2.75314 8.62186C2.83519 8.70391 2.94647 8.75 3.0625 8.75H5.25C5.36603 8.75 5.47731 8.70391 5.55936 8.62186C5.64141 8.53981 5.6875 8.42853 5.6875 8.3125V5.6875C5.6875 5.57147 5.64141 5.46019 5.55936 5.37814C5.47731 5.29609 5.36603 5.25 5.25 5.25H3.0625ZM0.875 5.46875C0.875 4.94661 1.08242 4.44585 1.45163 4.07663C1.82085 3.70742 2.32161 3.5 2.84375 3.5H10.2812C10.8034 3.5 11.3042 3.70742 11.6734 4.07663C12.0426 4.44585 12.25 4.94661 12.25 5.46875V5.6875H12.4688C12.6428 5.6875 12.8097 5.75664 12.9328 5.87971C13.0559 6.00278 13.125 6.1697 13.125 6.34375V7.65625C13.125 7.8303 13.0559 7.99722 12.9328 8.12029C12.8097 8.24336 12.6428 8.3125 12.4688 8.3125H12.25V8.53125C12.25 9.05339 12.0426 9.55415 11.6734 9.92337C11.3042 10.2926 10.8034 10.5 10.2812 10.5H2.84375C2.32161 10.5 1.82085 10.2926 1.45163 9.92337C1.08242 9.55415 0.875 9.05339 0.875 8.53125V5.46875ZM2.84375 4.375C2.55367 4.375 2.27547 4.49023 2.07035 4.69535C1.86523 4.90047 1.75 5.17867 1.75 5.46875V8.53125C1.75 8.82133 1.86523 9.09953 2.07035 9.30465C2.27547 9.50977 2.55367 9.625 2.84375 9.625H10.2812C10.5713 9.625 10.8495 9.50977 11.0546 9.30465C11.2598 9.09953 11.375 8.82133 11.375 8.53125V5.46875C11.375 5.17867 11.2598 4.90047 11.0546 4.69535C10.8495 4.49023 10.5713 4.375 10.2812 4.375H2.84375Z" fill="#E8AE00"/>
</svg>
