<svg width="24" height="24" viewBox="0 0 24 24" fill="none" xmlns="http://www.w3.org/2000/svg">
<path fill-rule="evenodd" clip-rule="evenodd" d="M7.61071 4.74289C8.3799 3.9107 9.35995 3.34396 10.4269 3.11435C11.4938 2.88474 12.5998 3.00257 13.6048 3.45293C14.6099 3.9033 15.4689 4.66597 16.0732 5.6445C16.6776 6.62302 17.0001 7.77345 17 8.95028C17 10.9962 16.0595 12.2431 15.2824 13.2716L15.251 13.3124C14.4621 14.3578 13.8571 15.1891 13.8571 16.6001C13.8571 16.8255 13.7744 17.0417 13.627 17.2011C13.4797 17.3605 13.2798 17.4501 13.0714 17.4501H9.92857C9.72019 17.4501 9.52034 17.3605 9.37299 17.2011C9.22564 17.0417 9.14286 16.8255 9.14286 16.6001C9.14286 15.2299 8.53786 14.3791 7.74429 13.3064L7.70893 13.2588C6.93736 12.2159 6 10.9494 6 8.95028C5.99995 8.16891 6.14217 7.39519 6.41853 6.67328C6.6949 5.95137 7.1 5.29543 7.61071 4.74289ZM9.14286 19.15C9.14286 18.9246 9.22564 18.7084 9.37299 18.549C9.52034 18.3896 9.72019 18.3 9.92857 18.3H13.0714C13.2798 18.3 13.4797 18.3896 13.627 18.549C13.7744 18.7084 13.8571 18.9246 13.8571 19.15C13.8571 19.3755 13.7744 19.5916 13.627 19.751C13.4797 19.9104 13.2798 20 13.0714 20H9.92857C9.72019 20 9.52034 19.9104 9.37299 19.751C9.22564 19.5916 9.14286 19.3755 9.14286 19.15ZM10.389 7.74841C10.6836 7.42959 11.0833 7.25042 11.5 7.25032C11.7084 7.25032 11.9082 7.16077 12.0556 7.00137C12.2029 6.84197 12.2857 6.62577 12.2857 6.40035C12.2857 6.17492 12.2029 5.95872 12.0556 5.79932C11.9082 5.63992 11.7084 5.55037 11.5 5.55037C10.6665 5.55037 9.86706 5.90857 9.27766 6.54618C8.68826 7.18379 8.35714 8.04857 8.35714 8.95028C8.35714 9.17571 8.43992 9.3919 8.58727 9.55131C8.73462 9.71071 8.93447 9.80026 9.14286 9.80026C9.35124 9.80026 9.55109 9.71071 9.69844 9.55131C9.84579 9.3919 9.92857 9.17571 9.92857 8.95028C9.92866 8.49946 10.0943 8.06714 10.389 7.74841Z" fill="#F3F5F7"/>
</svg>
