<svg width="21" height="20" viewBox="0 0 21 20" fill="none" xmlns="http://www.w3.org/2000/svg">
<path d="M10.0192 17.5V13.0134H13.6733V15.8975H10.7567V17.5H10.0192ZM15.0833 17.5V13.0134H15.8208V14.68H18V13.0134H18.7375V17.5H18V15.4167H15.82V17.5H15.0833ZM10.7567 15.16H12.9358V13.7834H10.7567V15.16ZM8.3525 17.475C6.80806 17.3556 5.52972 16.7362 4.5175 15.6167C3.50583 14.4962 3 13.1239 3 11.5C3 10.3034 3.48278 8.97977 4.44833 7.52921C5.41389 6.07866 6.87556 4.48783 8.83333 2.75671C10.7383 4.4456 12.1733 5.99644 13.1383 7.40921C14.1033 8.82199 14.6128 10.1217 14.6667 11.3084V11.3467H8.3525V17.475Z" fill="#158694"/>
</svg>
