<svg width="21" height="20" viewBox="0 0 21 20" fill="none" xmlns="http://www.w3.org/2000/svg">
<path d="M10.5 7.50004L9.79165 8.54171C9.41665 9.12504 9.16303 9.5731 9.03081 9.88587C8.89859 10.1987 8.83276 10.5145 8.83331 10.8334C8.83331 11.2917 8.99665 11.6842 9.32331 12.0109C9.64998 12.3375 10.0422 12.5006 10.5 12.5C10.9578 12.4995 11.3503 12.3364 11.6775 12.0109C12.0047 11.6853 12.1678 11.2928 12.1666 10.8334C12.1666 10.5139 12.1005 10.1981 11.9683 9.88587C11.8361 9.57365 11.5828 9.1256 11.2083 8.54171L10.5 7.50004ZM10.5 15.2084C9.05553 15.2084 7.82637 14.7014 6.81248 13.6875C5.79859 12.6737 5.29165 11.4445 5.29165 10C5.29165 8.5556 5.79859 7.32643 6.81248 6.31254C7.82637 5.29865 9.05553 4.79171 10.5 4.79171C11.9444 4.79171 13.1736 5.29865 14.1875 6.31254C15.2014 7.32643 15.7083 8.5556 15.7083 10C15.7083 11.4445 15.2014 12.6737 14.1875 13.6875C13.1736 14.7014 11.9444 15.2084 10.5 15.2084ZM18 10V9.16671H16.8958C16.743 8.0556 16.3439 7.05893 15.6983 6.17671C15.0528 5.29449 14.2436 4.62449 13.2708 4.16671H18V3.33337H19.6666V10H18ZM1.33331 16.6667V10H2.99998V10.8334H4.10415C4.25692 11.9445 4.65637 12.9412 5.30248 13.8234C5.94859 14.7056 6.75748 15.3756 7.72915 15.8334H2.99998V16.6667H1.33331Z" fill="#306B00"/>
</svg>
