<svg width="20" height="20" viewBox="0 0 20 20" fill="none" xmlns="http://www.w3.org/2000/svg">
<path d="M10.625 18.75C9.66155 18.7504 8.7249 18.4328 7.96042 17.8465C7.19594 17.2601 6.64639 16.4378 6.39706 15.5072C6.14773 14.5766 6.21257 13.5896 6.58152 12.6996C6.95046 11.8096 7.60288 11.0663 8.4375 10.585L8.75 10.405V3.125C8.74829 2.68275 8.90337 2.2542 9.18772 1.91547C9.47206 1.57674 9.86725 1.34974 10.3031 1.2748C10.739 1.19986 11.1873 1.28182 11.5684 1.50613C11.9496 1.73044 12.2389 2.08257 12.385 2.5H10.625V3.75H12.5V5H10.625V6.25H12.5V7.5H10.625V8.75H12.5V10.405L12.8125 10.585C13.6471 11.0663 14.2995 11.8096 14.6685 12.6996C15.0374 13.5896 15.1023 14.5766 14.8529 15.5072C14.6036 16.4378 14.0541 17.2601 13.2896 17.8465C12.5251 18.4328 11.5885 18.7504 10.625 18.75ZM13.75 9.6975V3.125C13.75 2.2962 13.4208 1.50134 12.8347 0.915291C12.2487 0.32924 11.4538 0 10.625 0C9.7962 0 9.00134 0.32924 8.41529 0.915291C7.82924 1.50134 7.5 2.2962 7.5 3.125V9.6975C6.4966 10.3679 5.7354 11.3433 5.32884 12.4795C4.92228 13.6157 4.8919 14.8526 5.2422 16.0074C5.59249 17.1622 6.30489 18.1737 7.27417 18.8926C8.24345 19.6115 9.41823 19.9996 10.625 19.9996C11.8318 19.9996 13.0065 19.6115 13.9758 18.8926C14.9451 18.1737 15.6575 17.1622 16.0078 16.0074C16.3581 14.8526 16.3277 13.6157 15.9212 12.4795C15.5146 11.3433 14.7534 10.3679 13.75 9.6975Z" fill="#BD0D00"/>
<path d="M10.625 11.25C11.4538 11.25 12.2487 11.5792 12.8347 12.1653C13.4208 12.7513 13.75 13.5462 13.75 14.375C13.75 15.2038 13.4208 15.9987 12.8347 16.5847C12.2487 17.1708 11.4538 17.5 10.625 17.5C9.7962 17.5 9.00134 17.1708 8.41529 16.5847C7.82924 15.9987 7.5 15.2038 7.5 14.375C7.5 13.5462 7.82924 12.7513 8.41529 12.1653C9.00134 11.5792 9.7962 11.25 10.625 11.25Z" fill="#BD0D00"/>
</svg>
