<svg width="21" height="20" viewBox="0 0 21 20" fill="none" xmlns="http://www.w3.org/2000/svg">
<path d="M10.5 15.8334C8.41085 15.8334 7.09835 14.7125 6.22252 13.6575C5.85585 13.2159 5.15585 13.2225 4.83502 13.6934C4.25085 14.5517 3.57002 15.3434 2.16669 15.655M18.8334 15.655C17.51 15.3617 16.83 14.6417 16.2667 13.84C15.9134 13.3384 15.1375 13.3684 14.7542 13.8509C14.4125 14.2809 14.005 14.6759 13.5125 15M10.5 7.50005C12.5892 7.50005 13.9017 6.37921 14.7784 5.32421C15.1442 4.88255 15.845 4.88921 16.165 5.36005C16.7492 6.21838 17.43 7.01005 18.8334 7.32171M2.16669 7.32171C3.49002 7.02838 4.17002 6.30838 4.73335 5.50671C5.08585 5.00505 5.86252 5.03588 6.24502 5.51755C6.58669 5.94671 6.99502 6.34255 7.48752 6.66671M18.8334 11.4884C17.51 11.195 16.83 10.475 16.2667 9.67338C15.9134 9.17171 15.1375 9.20171 14.7542 9.68421C13.8792 10.7859 12.5709 11.6667 10.5 11.6667C8.41085 11.6667 7.09835 10.5459 6.22252 9.49088C5.85585 9.04921 5.15585 9.05588 4.83502 9.52671C4.25085 10.385 3.57002 11.1767 2.16669 11.4884" stroke="#0055A5" stroke-width="1.25" stroke-linecap="round" stroke-linejoin="round"/>
</svg>
