<svg width="17" height="17" viewBox="0 0 17 17" fill="none" xmlns="http://www.w3.org/2000/svg">
<path d="M8.50016 1.4165C4.72475 4.63942 2.8335 7.42317 2.8335 9.77484C2.8335 13.3023 5.52516 15.5832 8.50016 15.5832C11.4752 15.5832 14.1668 13.3023 14.1668 9.77484C14.1668 7.42317 12.2756 4.63942 8.50016 1.4165ZM5.54641 9.9165C5.8085 9.9165 6.021 10.1007 6.07058 10.3557C6.361 11.9282 7.68558 12.4665 8.64891 12.3886C8.9535 12.3744 9.2085 12.6153 9.2085 12.9198C9.2085 13.2032 8.98183 13.4369 8.6985 13.4511C7.18975 13.5432 5.426 12.679 5.02225 10.5328C5.00994 10.4568 5.01427 10.3791 5.03494 10.305C5.05562 10.2309 5.09214 10.1622 5.14199 10.1036C5.19183 10.045 5.25381 9.99788 5.32364 9.96558C5.39347 9.93328 5.46948 9.91654 5.54641 9.9165Z" fill="#F3F5F7"/>
</svg>
